<svg id="Capa_1" enable-background="new 0 0 512 512" height="512" viewBox="0 0 512 512" width="512" xmlns="http://www.w3.org/2000/svg" xmlns:xlink="http://www.w3.org/1999/xlink"><linearGradient id="SVGID_1_" gradientUnits="userSpaceOnUse" x1="15.63" x2="496.37" y1="256" y2="256"><stop offset=".0485" stop-color="#ffdbed"/><stop offset=".9993" stop-color="#d2deff"/></linearGradient><linearGradient id="SVGID_2_" gradientUnits="userSpaceOnUse" x1="257.504" x2="257.504" y1="47.539" y2="464.461"><stop offset=".0028" stop-color="#ff7eb8" stop-opacity="0"/><stop offset="1" stop-color="#ff7eb8" stop-opacity=".6"/></linearGradient><g><g><g><path d="m20.722 179.563c26.255 85.007 107.775 89.005 182.131 93.553 244.867 14.978-63.002 218.186 146.697 238.304 77.136 7.4 157.787-56.956 145.589-140.291-11.107-75.879-121.152-121.073-121.207-191.979-.043-55.945 103.86-96.409 36.272-156.553-60.248-53.612-442.87-15.888-389.482 156.966z" fill="url(#SVGID_1_)"/></g><g><g><path d="m374.602 464.461h-234.196c-5.523 0-10-4.477-10-10v-396.922c0-5.523 4.477-10 10-10h234.196c5.523 0 10 4.477 10 10v396.922c0 5.523-4.477 10-10 10z" fill="#fff"/><path d="m130.41 101.61h254.19v308.78h-254.19z" fill="#d2deff"/><g><path d="m384.6 154.33v67.82c-3.05.86-6.25 1.32-9.57 1.32h-149.07c-2.76 0-5-2.24-5-5v-30.23c0-19.46 15.78-35.23 35.23-35.23h118.84c3.32 0 6.52.46 9.57 1.32z" fill="#b7c5ff"/></g><g><path d="m384.6 311.73v50.26h-128.64c-2.76 0-5-2.24-5-5v-20.13c0-13.88 11.25-25.13 25.13-25.13z" fill="#b7c5ff"/></g><g><path d="m231.04 275.7v30.24c0 2.76-2.24 5-5 5h-89.07c-2.24 0-4.43-.21-6.56-.61v-69.25c2.13-.4 4.32-.61 6.56-.61h58.84c19.45 0 35.23 15.78 35.23 35.23z" fill="#b7c5ff"/></g><g><path d="m264.91 82.574h-61.788c-2.761 0-5-2.238-5-5s2.239-5 5-5h61.788c2.761 0 5 2.238 5 5s-2.239 5-5 5z" fill="#b7c5ff"/></g><g fill="#d2deff"><path d="m327.848 86.824h-8.5c-2.761 0-5-2.239-5-5v-8.5c0-2.761 2.239-5 5-5h8.5c2.762 0 5 2.239 5 5v8.5c0 2.761-2.238 5-5 5z"/><path d="m355.618 86.824h-8.5c-2.761 0-5-2.239-5-5v-8.5c0-2.761 2.239-5 5-5h8.5c2.761 0 5 2.239 5 5v8.5c0 2.761-2.238 5-5 5z"/><path d="m355.618 443.863h-8.5c-2.761 0-5-2.239-5-5v-8.5c0-2.761 2.239-5 5-5h8.5c2.761 0 5 2.239 5 5v8.5c0 2.762-2.238 5-5 5z"/><path d="m308.848 446.008h-139.5c-6.351 0-11.5-5.149-11.5-11.5 0-6.351 5.149-11.5 11.5-11.5h139.5c6.351 0 11.5 5.149 11.5 11.5 0 6.352-5.149 11.5-11.5 11.5z"/></g><path d="m182.003 85.357h-2.834c.314 1.907.772 4.684 1.084 6.581.161.977-.593 1.865-1.582 1.865h-6.663v7.806h-20.029v-25.296c0-8.734 7.08-15.814 15.813-15.814 8.734 0 15.814 7.08 15.814 15.814v7.439c-.001.886-.717 1.605-1.603 1.605z" fill="#ffa8cf"/><g><path d="m335.871 367.601h16.52c2.762 0 5-2.239 5-5s-2.238-5-5-5h-16.52c-2.762 0-5 2.239-5 5s2.239 5 5 5z" fill="#8399fe"/></g><g><path d="m176.129 316.545h-16.52c-2.762 0-5-2.239-5-5s2.238-5 5-5h16.52c2.762 0 5 2.239 5 5s-2.239 5-5 5z" fill="#8399fe"/></g><g><path d="m335.871 229.082h16.52c2.762 0 5-2.239 5-5s-2.238-5-5-5h-16.52c-2.762 0-5 2.239-5 5s2.239 5 5 5z" fill="#8399fe"/></g><g fill="#8399fe"><path d="m306.778 390.466c0 2.809-2.277 5.085-5.085 5.085-2.809 0-5.085-2.277-5.085-5.085 0-2.809 2.277-5.085 5.085-5.085s5.085 2.277 5.085 5.085z"/><path d="m323.822 390.466c0 2.809-2.277 5.085-5.086 5.085s-5.085-2.277-5.085-5.085c0-2.809 2.277-5.085 5.085-5.085 2.809 0 5.086 2.277 5.086 5.085z"/><path d="m340.867 390.466c0 2.809-2.277 5.085-5.085 5.085-2.809 0-5.086-2.277-5.086-5.085 0-2.809 2.277-5.085 5.086-5.085 2.808 0 5.085 2.277 5.085 5.085z"/><path d="m357.911 390.466c0 2.809-2.277 5.085-5.085 5.085-2.809 0-5.085-2.277-5.085-5.085 0-2.809 2.277-5.085 5.085-5.085s5.085 2.277 5.085 5.085z"/></g></g><path d="m374.602 464.461h-234.196c-5.523 0-10-4.477-10-10v-396.922c0-5.523 4.477-10 10-10h234.196c5.523 0 10 4.477 10 10v396.922c0 5.523-4.477 10-10 10z" fill="url(#SVGID_2_)"/><g><g><g><path d="m255.961 342.371h129.174c13.879 0 25.13-11.251 25.13-25.13 0-13.879-11.251-25.13-25.13-25.13h-109.044c-13.879 0-25.13 11.251-25.13 25.13v20.13c0 2.762 2.239 5 5 5z" fill="#02ffb3"/></g><g><g><path d="m288.112 321.467h85.52c2.762 0 5-2.239 5-5s-2.238-5-5-5h-85.52c-2.762 0-5 2.239-5 5s2.238 5 5 5z" fill="#fff"/></g></g></g><g><g><path d="m225.961 203.853h149.071c19.458 0 35.232-15.774 35.232-35.232 0-19.458-15.774-35.232-35.232-35.232h-118.839c-19.458 0-35.232 15.774-35.232 35.232v30.232c0 2.761 2.239 5 5 5z" fill="#02ffb3"/></g><g><g><path d="m297.167 164.292h73.519c2.762 0 5-2.239 5-5s-2.238-5-5-5h-73.519c-2.762 0-5 2.239-5 5s2.238 5 5 5z" fill="#fff"/></g><g><path d="m255.167 182.949h115.519c2.762 0 5-2.239 5-5s-2.238-5-5-5h-115.519c-2.762 0-5 2.239-5 5s2.238 5 5 5z" fill="#fff"/></g></g></g><g><path d="m226.039 291.315h-89.072c-19.458 0-35.232-15.774-35.232-35.232 0-19.458 15.774-35.232 35.232-35.232h58.839c19.458 0 35.232 15.774 35.232 35.232v30.232c.001 2.762-2.238 5-4.999 5z" fill="#fff"/></g><g><g><path d="m172.833 251.755h-31.52c-2.762 0-5-2.239-5-5s2.238-5 5-5h31.52c2.762 0 5 2.239 5 5s-2.238 5-5 5z" fill="#9fb0fe"/></g><g><path d="m196.833 270.411h-55.52c-2.762 0-5-2.239-5-5s2.238-5 5-5h55.52c2.762 0 5 2.239 5 5 0 2.762-2.238 5-5 5z" fill="#9fb0fe"/></g></g></g><path d="m77.578 310.295c-2.761 0-5-2.238-5-5 0-3.309-2.691-6-6-6-2.761 0-5-2.238-5-5s2.239-5 5-5c3.309 0 6-2.691 6-6 0-2.762 2.239-5 5-5s5 2.238 5 5c0 3.309 2.691 6 6 6 2.761 0 5 2.238 5 5s-2.239 5-5 5c-3.309 0-6 2.691-6 6 0 2.762-2.239 5-5 5z" fill="#6583fe"/><path d="m60 350.86c-2.761 0-5-2.238-5-5 0-3.309-2.691-6-6-6-2.761 0-5-2.238-5-5s2.239-5 5-5c3.309 0 6-2.691 6-6 0-2.762 2.239-5 5-5s5 2.238 5 5c0 3.309 2.691 6 6 6 2.761 0 5 2.238 5 5s-2.239 5-5 5c-3.309 0-6 2.691-6 6 0 2.762-2.239 5-5 5z" fill="#01eca5"/><path d="m444.892 259.465c-2.761 0-5-2.238-5-5 0-3.309-2.691-6-6-6-2.761 0-5-2.238-5-5s2.239-5 5-5c3.309 0 6-2.691 6-6 0-2.762 2.239-5 5-5s5 2.238 5 5c0 3.309 2.691 6 6 6 2.761 0 5 2.238 5 5s-2.239 5-5 5c-3.309 0-6 2.691-6 6 0 2.762-2.239 5-5 5z" fill="#ff7eb8"/><path d="m427 407.805c-1.28 0-2.559-.488-3.536-1.465l-11-11c-1.953-1.952-1.953-5.118 0-7.07l11-11c1.953-1.953 5.118-1.953 7.071 0l11 11c1.953 1.952 1.953 5.118 0 7.07l-11 11c-.976.976-2.255 1.465-3.535 1.465zm-3.929-16 3.929 3.929 3.929-3.929-3.929-3.929z" fill="#6583fe"/><path d="m88.578 201.457c-1.28 0-2.559-.488-3.536-1.465l-11-11c-1.953-1.952-1.953-5.118 0-7.07l11-11c1.953-1.953 5.118-1.953 7.071 0l11 11c1.953 1.952 1.953 5.118 0 7.07l-11 11c-.976.977-2.256 1.465-3.535 1.465zm-3.929-16 3.929 3.929 3.929-3.929-3.929-3.929z" fill="#ff7eb8"/></g></g></g></svg>