<svg width="282" height="217" viewBox="0 0 282 217" fill="none" xmlns="http://www.w3.org/2000/svg">
<g clip-path="url(#clip0)">
<path opacity="0.1" d="M223.67 178.333C227.783 180.41 232.813 179.147 237.486 179.293C238.126 179.314 238.802 179.375 239.316 179.732C239.83 180.089 240.087 180.674 240.434 181.172C241.742 183.023 244.426 183.618 246.77 183.305C249.114 182.992 251.266 181.95 253.479 181.157C257.304 179.788 261.676 179.165 265.449 180.659C265.783 180.83 266.156 180.912 266.532 180.897C267.359 180.777 267.603 179.781 268.184 179.213C269.228 178.187 271.495 178.469 271.955 177.119C272.212 176.326 271.605 175.515 270.927 174.976C268.356 172.907 264.66 172.565 261.283 172.886C257.905 173.207 254.6 174.082 251.199 174.087C246.973 174.087 242.889 172.737 238.704 172.185C235.805 171.8 232.641 171.849 229.921 172.979C226.983 174.211 226.338 176.942 223.67 178.333Z" fill="#06A5FF"/>
<path opacity="0.1" d="M3.0459 110.367C7.50814 129.413 16.9544 145.877 31.8808 153.858C62.9082 170.442 132.877 161.887 185.095 152.061C211.482 147.112 235.434 133.44 253.093 113.245L3.0459 110.367Z" fill="#06A5FF"/>
<path opacity="0.1" d="M276.885 20.7122H248.232C247.576 20.7122 246.946 20.4517 246.482 19.9882C246.018 19.5246 245.757 18.8959 245.757 18.2403C245.757 17.5847 246.018 16.956 246.482 16.4924C246.946 16.0288 247.576 15.7684 248.232 15.7684H253.185C252.542 15.7477 251.933 15.4781 251.485 15.0165C251.038 14.555 250.787 13.9377 250.787 13.2952C250.787 12.6528 251.038 12.0355 251.485 11.5739C251.933 11.1124 252.542 10.8427 253.185 10.8221H249.649C249.006 10.8014 248.396 10.5317 247.948 10.0702C247.501 9.60864 247.25 8.99136 247.25 8.34889C247.25 7.70642 247.501 7.08914 247.948 6.62759C248.396 6.16604 249.006 5.89641 249.649 5.87572H264.603C261.285 4.3356 257.406 3.23955 252.936 2.66714C212.159 -2.56413 197.6 0.896002 192.465 4.46394C186.129 8.85328 179.06 12.0824 171.505 13.6379C146.346 18.8204 99.2948 25.0579 56.6491 11.6435C35.4535 4.96961 19.702 16.2407 10.2583 35.0738H281.858C281.504 29.5987 280.442 24.5496 278.494 20.1218C278.046 20.5051 277.475 20.7147 276.885 20.7122Z" fill="#06A5FF"/>
<path opacity="0.1" d="M0.613839 70.6143C-0.486635 81.6906 -0.113249 92.8638 1.72426 103.842L253.285 113.032C260.288 104.987 266.168 96.0332 270.764 86.4133L0.613839 70.6143ZM100.109 94.3192H95.1562C95.8127 94.3192 96.4423 94.5797 96.9065 95.0432C97.3707 95.5068 97.6315 96.1355 97.6315 96.7911C97.6315 97.4467 97.3707 98.0754 96.9065 98.539C96.4423 99.0026 95.8127 99.263 95.1562 99.263H66.5038C65.8473 99.263 65.2177 99.0026 64.7535 98.539C64.2893 98.0754 64.0285 97.4467 64.0285 96.7911C64.0285 96.1355 64.2893 95.5068 64.7535 95.0432C65.2177 94.5797 65.8473 94.3192 66.5038 94.3192H71.457C70.814 94.2985 70.2042 94.0289 69.7567 93.5674C69.3091 93.1058 69.0589 92.4885 69.0589 91.8461C69.0589 91.2036 69.3091 90.5863 69.7567 90.1248C70.2042 89.6632 70.814 89.3936 71.457 89.3729H67.9201C67.2771 89.3522 66.6673 89.0826 66.2198 88.621C65.7722 88.1595 65.522 87.5422 65.522 86.8997C65.522 86.2572 65.7722 85.64 66.2198 85.1784C66.6673 84.7169 67.2771 84.4472 67.9201 84.4265H96.5725C97.2155 84.4472 97.8253 84.7169 98.2728 85.1784C98.7204 85.64 98.9706 86.2572 98.9706 86.8997C98.9706 87.5422 98.7204 88.1595 98.2728 88.621C97.8253 89.0826 97.2155 89.3522 96.5725 89.3729H100.109C100.752 89.3936 101.362 89.6632 101.81 90.1248C102.257 90.5863 102.507 91.2036 102.507 91.8461C102.507 92.4885 102.257 93.1058 101.81 93.5674C101.362 94.0289 100.752 94.2985 100.109 94.3192Z" fill="#06A5FF"/>
<path opacity="0.1" d="M281.871 35.2407L7.22782 41.9146C3.88628 50.4879 1.68344 60.1829 0.655273 70.2348H277.059C278.863 64.3305 280.198 58.2933 281.051 52.1794C281.874 46.2731 282.203 40.5618 281.871 35.2407ZM56.4127 57.1001H51.4595C52.116 57.1001 52.7456 57.3606 53.2098 57.8241C53.674 58.2877 53.9348 58.9164 53.9348 59.572C53.9348 60.2276 53.674 60.8563 53.2098 61.3199C52.7456 61.7835 52.116 62.0439 51.4595 62.0439H22.8071C22.1506 62.0439 21.521 61.7835 21.0568 61.3199C20.5926 60.8563 20.3318 60.2276 20.3318 59.572C20.3318 58.9164 20.5926 58.2877 21.0568 57.8241C21.521 57.3606 22.1506 57.1001 22.8071 57.1001H27.7603C27.1173 57.0794 26.5075 56.8098 26.06 56.3483C25.6124 55.8867 25.3622 55.2694 25.3622 54.627C25.3622 53.9845 25.6124 53.3672 26.06 52.9057C26.5075 52.4441 27.1173 52.1745 27.7603 52.1538H24.2234C23.5804 52.1331 22.9706 51.8635 22.5231 51.4019C22.0755 50.9404 21.8253 50.3231 21.8253 49.6806C21.8253 49.0381 22.0755 48.4209 22.5231 47.9593C22.9706 47.4978 23.5804 47.2281 24.2234 47.2074H52.8758C53.5188 47.2281 54.1286 47.4978 54.5761 47.9593C55.0236 48.4209 55.2739 49.0381 55.2739 49.6806C55.2739 50.3231 55.0236 50.9404 54.5761 51.4019C54.1286 51.8635 53.5188 52.1331 52.8758 52.1538H56.4127C57.0557 52.1745 57.6655 52.4441 58.113 52.9057C58.5605 53.3672 58.8108 53.9845 58.8108 54.627C58.8108 55.2694 58.5605 55.8867 58.113 56.3483C57.6655 56.8098 57.0557 57.0794 56.4127 57.1001Z" fill="#06A5FF"/>
<g opacity="0.1">
<path opacity="0.1" d="M149.935 152.375C149.935 152.375 157.183 134.535 170.719 127.915C176.414 125.176 181.065 120.666 183.975 115.063C185.335 112.391 186.447 109.6 187.298 106.726" stroke="#535461" stroke-width="2" stroke-miterlimit="10"/>
<path opacity="0.1" d="M195.804 102.505C194.392 104.277 187.09 106.869 187.09 106.869C187.09 106.869 187.969 99.1813 189.38 97.4101C189.702 96.9512 190.115 96.5628 190.592 96.269C191.07 95.9752 191.603 95.7821 192.159 95.7017C192.714 95.6213 193.28 95.6552 193.822 95.8014C194.363 95.9475 194.869 96.2029 195.308 96.5516C195.748 96.9004 196.111 97.3353 196.375 97.8294C196.64 98.3235 196.801 98.8665 196.847 99.425C196.894 99.9834 196.826 100.545 196.646 101.077C196.467 101.608 196.181 102.096 195.806 102.513L195.804 102.505Z" fill="#06A5FF"/>
<path opacity="0.1" d="M193.298 116.533C191.149 117.255 183.612 115.463 183.612 115.463C183.612 115.463 188.535 109.487 190.684 108.766C191.204 108.55 191.764 108.443 192.328 108.453C192.892 108.462 193.448 108.587 193.962 108.82C194.475 109.053 194.935 109.389 195.313 109.807C195.691 110.225 195.979 110.717 196.159 111.251C196.338 111.785 196.406 112.35 196.358 112.911C196.31 113.472 196.146 114.018 195.878 114.513C195.609 115.008 195.242 115.443 194.798 115.791C194.354 116.139 193.843 116.391 193.298 116.533Z" fill="#06A5FF"/>
<path opacity="0.1" d="M179.711 133.118C177.493 132.659 171.892 127.309 171.892 127.309C171.892 127.309 179.163 124.632 181.382 125.094C182.386 125.374 183.247 126.024 183.79 126.914C184.333 127.804 184.516 128.866 184.304 129.886C184.092 130.906 183.499 131.808 182.646 132.408C181.793 133.008 180.744 133.262 179.711 133.118Z" fill="#06A5FF"/>
<path opacity="0.1" d="M166.601 143.355C164.336 143.275 157.91 138.95 157.91 138.95C157.91 138.95 164.624 135.084 166.889 135.161C167.45 135.146 168.008 135.246 168.529 135.455C169.05 135.664 169.523 135.977 169.918 136.375C170.313 136.773 170.622 137.248 170.827 137.77C171.031 138.292 171.127 138.85 171.107 139.411C171.087 139.971 170.953 140.521 170.712 141.028C170.472 141.534 170.13 141.986 169.708 142.355C169.285 142.725 168.792 143.004 168.258 143.176C167.723 143.348 167.159 143.409 166.601 143.355Z" fill="#06A5FF"/>
<path opacity="0.1" d="M176.595 110.45C176.883 112.693 181.793 118.682 181.793 118.682C181.793 118.682 185.026 111.649 184.736 109.402C184.7 108.842 184.55 108.294 184.295 107.794C184.039 107.293 183.683 106.85 183.249 106.493C182.815 106.135 182.312 105.87 181.771 105.714C181.231 105.558 180.664 105.515 180.106 105.587C179.548 105.659 179.01 105.844 178.527 106.132C178.043 106.419 177.624 106.803 177.295 107.259C176.966 107.714 176.734 108.233 176.614 108.782C176.493 109.331 176.487 109.898 176.595 110.45Z" fill="#06A5FF"/>
<path opacity="0.1" d="M161.414 122.617C162.363 124.67 168.843 128.918 168.843 128.918C168.843 128.918 169.817 121.241 168.869 119.185C168.371 118.267 167.542 117.573 166.551 117.244C165.559 116.914 164.479 116.974 163.53 117.411C162.582 117.848 161.835 118.629 161.442 119.596C161.049 120.563 161.039 121.643 161.414 122.617Z" fill="#06A5FF"/>
<path opacity="0.1" d="M148.284 136.46C148.873 138.644 154.538 143.924 154.538 143.924C154.538 143.924 156.8 136.521 156.214 134.337C155.881 133.346 155.182 132.519 154.26 132.024C153.338 131.53 152.261 131.405 151.25 131.676C150.239 131.946 149.369 132.592 148.818 133.481C148.267 134.37 148.076 135.435 148.284 136.46Z" fill="#06A5FF"/>
<path opacity="0.25" d="M195.804 102.505C194.392 104.277 187.09 106.869 187.09 106.869C187.09 106.869 187.969 99.1813 189.38 97.4101C189.702 96.9512 190.115 96.5628 190.592 96.269C191.07 95.9752 191.603 95.7821 192.159 95.7017C192.714 95.6213 193.28 95.6552 193.822 95.8014C194.363 95.9475 194.869 96.2029 195.308 96.5516C195.748 96.9004 196.111 97.3353 196.375 97.8294C196.64 98.3235 196.801 98.8665 196.847 99.425C196.894 99.9834 196.826 100.545 196.646 101.077C196.467 101.608 196.181 102.096 195.806 102.513L195.804 102.505Z" fill="black"/>
<path opacity="0.25" d="M193.298 116.533C191.149 117.255 183.612 115.463 183.612 115.463C183.612 115.463 188.535 109.487 190.684 108.766C191.204 108.55 191.764 108.443 192.328 108.453C192.892 108.462 193.448 108.587 193.962 108.82C194.475 109.053 194.935 109.389 195.313 109.807C195.691 110.225 195.979 110.717 196.159 111.251C196.338 111.785 196.406 112.35 196.358 112.911C196.31 113.472 196.146 114.018 195.878 114.513C195.609 115.008 195.242 115.443 194.798 115.791C194.354 116.139 193.843 116.391 193.298 116.533Z" fill="black"/>
<path opacity="0.25" d="M179.711 133.118C177.493 132.659 171.892 127.309 171.892 127.309C171.892 127.309 179.163 124.632 181.382 125.094C182.386 125.374 183.247 126.024 183.79 126.914C184.333 127.804 184.516 128.866 184.304 129.886C184.092 130.906 183.499 131.808 182.646 132.408C181.793 133.008 180.744 133.262 179.711 133.118Z" fill="black"/>
<path opacity="0.25" d="M166.601 143.355C164.336 143.275 157.91 138.95 157.91 138.95C157.91 138.95 164.624 135.084 166.889 135.161C167.45 135.146 168.008 135.246 168.529 135.455C169.05 135.664 169.523 135.977 169.918 136.375C170.313 136.773 170.622 137.248 170.827 137.77C171.031 138.292 171.127 138.85 171.107 139.411C171.087 139.971 170.953 140.521 170.712 141.028C170.472 141.534 170.13 141.986 169.708 142.355C169.285 142.725 168.792 143.004 168.258 143.176C167.723 143.348 167.159 143.409 166.601 143.355Z" fill="black"/>
<path opacity="0.25" d="M176.595 110.45C176.883 112.693 181.793 118.682 181.793 118.682C181.793 118.682 185.026 111.649 184.736 109.402C184.7 108.842 184.55 108.294 184.295 107.794C184.039 107.293 183.683 106.85 183.249 106.493C182.815 106.135 182.312 105.87 181.771 105.714C181.231 105.558 180.664 105.515 180.106 105.587C179.548 105.659 179.01 105.844 178.527 106.132C178.043 106.419 177.624 106.803 177.295 107.259C176.966 107.714 176.734 108.233 176.614 108.782C176.493 109.331 176.487 109.898 176.595 110.45Z" fill="black"/>
<path opacity="0.25" d="M161.414 122.617C162.363 124.67 168.843 128.918 168.843 128.918C168.843 128.918 169.817 121.241 168.869 119.185C168.371 118.267 167.542 117.573 166.551 117.244C165.559 116.914 164.479 116.974 163.53 117.411C162.582 117.848 161.835 118.629 161.442 119.596C161.049 120.563 161.039 121.643 161.414 122.617Z" fill="black"/>
<path opacity="0.25" d="M148.284 136.46C148.873 138.644 154.538 143.924 154.538 143.924C154.538 143.924 156.8 136.521 156.214 134.337C155.881 133.346 155.182 132.519 154.26 132.024C153.338 131.53 152.261 131.405 151.25 131.676C150.239 131.946 149.369 132.592 148.818 133.481C148.267 134.37 148.076 135.435 148.284 136.46Z" fill="black"/>
</g>
<g opacity="0.1">
<path opacity="0.1" d="M155.358 125.363C155.358 125.363 156.273 106.132 166.846 95.408C171.309 90.9374 174.2 85.1413 175.084 78.8902C175.477 75.9196 175.598 72.9193 175.444 69.9268" stroke="#535461" stroke-width="2" stroke-miterlimit="10"/>
<path opacity="0.1" d="M182.073 63.1269C181.33 65.2651 175.3 70.1216 175.3 70.1216C175.3 70.1216 173.577 62.5776 174.318 60.4394C174.468 59.8985 174.727 59.394 175.08 58.9571C175.433 58.5202 175.872 58.1603 176.37 57.8994C176.868 57.6386 177.414 57.4825 177.974 57.4406C178.535 57.3988 179.098 57.4722 179.629 57.6562C180.16 57.8402 180.648 58.1311 181.062 58.5107C181.476 58.8903 181.808 59.3506 182.037 59.8633C182.266 60.376 182.387 60.9301 182.393 61.4915C182.4 62.0528 182.29 62.6094 182.073 63.1269Z" fill="#06A5FF"/>
<path opacity="0.1" d="M184.368 77.183C182.569 78.5768 174.873 79.3802 174.873 79.3802C174.873 79.3802 177.533 72.1109 179.32 70.7197C180.183 70.1321 181.239 69.8949 182.271 70.0562C183.303 70.2175 184.236 70.7651 184.878 71.5879C185.521 72.4107 185.826 73.447 185.731 74.4862C185.636 75.5254 185.149 76.4896 184.368 77.183Z" fill="#06A5FF"/>
<path opacity="0.1" d="M177.057 97.3354C174.811 97.6357 167.75 94.4451 167.75 94.4451C167.75 94.4451 173.721 89.5039 175.957 89.2112C177 89.14 178.03 89.4675 178.839 90.1272C179.648 90.7869 180.176 91.7294 180.314 92.7633C180.453 93.7973 180.193 94.8452 179.586 95.6943C178.979 96.5434 178.071 97.1302 177.047 97.3354H177.057Z" fill="#06A5FF"/>
<path opacity="0.1" d="M168.087 111.335C165.926 112.01 158.428 110.052 158.428 110.052C158.428 110.052 163.476 104.181 165.64 103.506C166.165 103.304 166.726 103.212 167.288 103.235C167.851 103.258 168.402 103.396 168.909 103.64C169.415 103.885 169.866 104.231 170.234 104.656C170.601 105.081 170.877 105.578 171.045 106.114C171.213 106.65 171.268 107.215 171.209 107.774C171.149 108.333 170.975 108.873 170.698 109.362C170.421 109.851 170.046 110.278 169.597 110.616C169.148 110.955 168.634 111.198 168.087 111.33V111.335Z" fill="#06A5FF"/>
<path opacity="0.1" d="M166.589 76.9826C167.617 79.0027 174.228 83.0276 174.228 83.0276C174.228 83.0276 174.94 75.327 173.922 73.2992C173.702 72.7828 173.378 72.3169 172.97 71.9304C172.563 71.5439 172.08 71.2448 171.552 71.0518C171.025 70.8588 170.463 70.7758 169.902 70.808C169.341 70.8403 168.792 70.987 168.29 71.2392C167.788 71.4914 167.343 71.8437 166.982 72.2744C166.622 72.705 166.354 73.2049 166.194 73.7431C166.035 74.2813 165.988 74.8465 166.055 75.4036C166.123 75.9608 166.305 76.4982 166.589 76.9826Z" fill="#06A5FF"/>
<path opacity="0.1" d="M156.306 93.4851C157.885 95.1099 165.406 96.9709 165.406 96.9709C165.406 96.9709 163.778 89.4063 162.2 87.7815C161.836 87.3527 161.388 87.0032 160.883 86.7545C160.378 86.5059 159.827 86.3634 159.265 86.336C158.702 86.3085 158.14 86.3966 157.613 86.5949C157.087 86.7932 156.606 87.0974 156.202 87.4887C155.798 87.8799 155.478 88.3499 155.263 88.8695C155.048 89.3892 154.942 89.9473 154.952 90.5095C154.962 91.0716 155.087 91.6258 155.32 92.1376C155.553 92.6495 155.889 93.1081 156.306 93.4851Z" fill="#06A5FF"/>
<path opacity="0.1" d="M148.518 110.896C149.803 112.765 156.898 115.866 156.898 115.866C156.898 115.866 156.571 108.134 155.294 106.268C155.009 105.781 154.627 105.358 154.172 105.025C153.716 104.692 153.197 104.456 152.646 104.332C152.095 104.208 151.525 104.198 150.97 104.304C150.416 104.41 149.889 104.628 149.422 104.946C148.956 105.264 148.56 105.675 148.26 106.152C147.959 106.629 147.76 107.164 147.676 107.721C147.591 108.279 147.622 108.847 147.767 109.392C147.912 109.937 148.168 110.447 148.518 110.889V110.896Z" fill="#06A5FF"/>
</g>
<path d="M254.111 159.836C254.111 159.836 255.525 161.682 253.461 164.456C251.397 167.231 249.695 169.59 250.376 171.328C250.376 171.328 253.492 166.158 256.031 166.084C258.571 166.009 256.9 162.944 254.111 159.836Z" fill="#06A5FF"/>
<path opacity="0.1" d="M254.111 159.836C254.235 160.015 254.332 160.21 254.401 160.416C256.874 163.317 258.19 166.025 255.812 166.091C253.599 166.156 250.944 170.109 250.307 171.107C250.328 171.184 250.352 171.261 250.381 171.335C250.381 171.335 253.497 166.166 256.036 166.091C258.576 166.017 256.9 162.944 254.111 159.836Z" fill="black"/>
<path d="M256.739 162.185C256.739 162.834 256.664 163.36 256.574 163.36C256.484 163.36 256.412 162.834 256.412 162.185C256.412 161.535 256.502 161.841 256.592 161.841C256.682 161.841 256.739 161.535 256.739 162.185Z" fill="#FFD037"/>
<path d="M257.638 162.96C257.067 163.27 256.568 163.458 256.527 163.378C256.486 163.299 256.91 162.986 257.481 162.675C258.051 162.364 257.828 162.59 257.872 162.675C257.915 162.76 258.211 162.66 257.638 162.96Z" fill="#FFD037"/>
<path d="M246.644 159.836C246.644 159.836 245.231 161.682 247.295 164.456C249.359 167.231 251.06 169.59 250.379 171.328C250.379 171.328 247.267 166.158 244.724 166.084C242.182 166.009 243.866 162.944 246.644 159.836Z" fill="#06A5FF"/>
<path opacity="0.1" d="M246.644 159.836C246.521 160.015 246.423 160.21 246.354 160.416C243.881 163.317 242.565 166.025 244.943 166.091C247.156 166.156 249.811 170.109 250.448 171.107C250.428 171.185 250.402 171.261 250.371 171.335C250.371 171.335 247.259 166.166 244.716 166.091C242.174 166.017 243.866 162.944 246.644 159.836Z" fill="black"/>
<path d="M244.027 162.185C244.027 162.834 244.102 163.36 244.192 163.36C244.282 163.36 244.354 162.834 244.354 162.185C244.354 161.535 244.264 161.841 244.174 161.841C244.084 161.841 244.027 161.535 244.027 162.185Z" fill="#FFD037"/>
<path d="M243.127 162.96C243.698 163.27 244.194 163.458 244.238 163.378C244.281 163.299 243.855 162.986 243.284 162.675C242.713 162.364 242.937 162.59 242.893 162.675C242.85 162.76 242.557 162.66 243.127 162.96Z" fill="#FFD037"/>
<path d="M244.477 171.092C244.477 171.092 248.425 170.971 249.617 170.124C250.81 169.277 255.691 168.268 255.987 169.611C256.282 170.953 261.919 176.362 257.462 176.398C253.005 176.433 247.106 175.702 245.919 174.981C244.731 174.259 244.477 171.092 244.477 171.092Z" fill="#A8A8A8"/>
<path opacity="0.2" d="M257.539 175.935C253.082 175.971 247.183 175.242 245.996 174.521C245.091 173.972 244.731 171.998 244.61 171.086H244.477C244.477 171.086 244.734 174.267 245.916 174.988C247.098 175.709 253.003 176.438 257.46 176.405C258.745 176.392 259.19 175.935 259.166 175.26C258.981 175.673 258.496 175.928 257.539 175.935Z" fill="black"/>
<path opacity="0.1" d="M0.21582 184.434C5.53143 186.354 12.0166 185.186 18.0468 185.322C18.8719 185.34 19.7484 185.397 20.409 185.728C21.0696 186.059 21.3986 186.598 21.851 187.057C23.5423 188.769 26.9918 189.321 30.0326 189.031C33.0734 188.741 35.834 187.779 38.6975 187.044C43.6352 185.779 49.2799 185.201 54.1508 186.582C54.5977 186.744 55.0714 186.819 55.5465 186.803C56.6132 186.69 56.932 185.776 57.68 185.248C59.0269 184.3 61.9546 184.557 62.5483 183.307C62.8953 182.576 62.0959 181.826 61.2271 181.325C57.8985 179.413 53.1355 179.097 48.7812 179.393C44.4269 179.688 40.142 180.502 35.7621 180.504C30.3076 180.504 25.0357 179.257 19.6327 178.746C15.8902 178.392 11.8084 178.435 8.29977 179.48C4.49042 180.609 3.65246 183.145 0.21582 184.434Z" fill="#06A5FF"/>
<path d="M60.3123 179.4C60.7848 179.018 61.1292 178.5 61.2993 177.917C61.4253 177.326 61.1734 176.621 60.6104 176.405C59.9781 176.164 59.3021 176.6 58.7906 177.042C58.2791 177.483 57.6905 177.989 57.0196 177.896C57.3646 177.584 57.6227 177.187 57.7686 176.746C57.9146 176.304 57.9434 175.832 57.8524 175.376C57.8231 175.187 57.7432 175.009 57.6211 174.862C57.2715 174.487 56.634 174.649 56.2125 174.944C54.8759 175.884 54.5031 177.696 54.498 179.329C54.3618 178.738 54.4749 178.127 54.4723 177.532C54.4697 176.936 54.3027 176.248 53.7937 175.935C53.4793 175.761 53.1248 175.673 52.7656 175.679C52.1641 175.658 51.4958 175.717 51.0845 176.156C50.5704 176.7 50.7066 177.616 51.1513 178.209C51.596 178.802 52.2695 179.185 52.8889 179.601C53.3875 179.897 53.8127 180.301 54.133 180.784C54.1709 180.851 54.2019 180.921 54.2255 180.994H57.9758C58.8237 180.572 59.6098 180.036 60.3123 179.4Z" fill="#06A5FF"/>
<path d="M30.3852 183.451C30.3852 183.451 26.7866 171.205 31.0612 162.19C32.8838 158.421 33.434 154.164 32.6291 150.056C32.2294 148.109 31.653 146.203 30.907 144.36" stroke="#535461" stroke-width="2" stroke-miterlimit="10"/>
<path d="M33.5774 138.665C33.5774 140.166 30.8554 144.517 30.8554 144.517C30.8554 144.517 28.1333 140.153 28.1333 138.665C28.1333 137.944 28.4201 137.252 28.9306 136.742C29.4411 136.233 30.1334 135.946 30.8554 135.946C31.5773 135.946 32.2697 136.233 32.7802 136.742C33.2906 137.252 33.5774 137.944 33.5774 138.665Z" fill="#06A5FF"/>
<path d="M38.0758 146.978C37.2584 148.236 32.606 150.413 32.606 150.413C32.606 150.413 32.6882 145.279 33.5056 144.024C33.8979 143.419 34.5149 142.994 35.2209 142.843C35.9268 142.692 36.6639 142.827 37.27 143.219C37.876 143.611 38.3014 144.227 38.4525 144.932C38.6036 145.637 38.4681 146.373 38.0758 146.978Z" fill="#06A5FF"/>
<path d="M37.8774 161.183C36.5357 161.858 31.418 161.394 31.418 161.394C31.418 161.394 34.0861 157.007 35.4278 156.332C36.072 156.008 36.8189 155.952 37.5041 156.178C38.1894 156.403 38.7568 156.891 39.0817 157.535C39.4065 158.178 39.4621 158.924 39.2363 159.608C39.0104 160.292 38.5216 160.859 37.8774 161.183Z" fill="#06A5FF"/>
<path d="M35.3046 171.9C34.0965 172.791 28.9736 173.184 28.9736 173.184C28.9736 173.184 30.8603 168.409 32.0581 167.516C32.3433 167.282 32.673 167.109 33.0272 167.007C33.3814 166.905 33.7528 166.875 34.1187 166.921C34.4846 166.966 34.8375 167.085 35.156 167.271C35.4744 167.456 35.7518 167.705 35.9712 168C36.1907 168.296 36.3477 168.634 36.4326 168.992C36.5176 169.35 36.5287 169.722 36.4654 170.085C36.4021 170.448 36.2656 170.794 36.0643 171.102C35.863 171.411 35.601 171.675 35.2943 171.88L35.3046 171.9Z" fill="#06A5FF"/>
<path d="M26.8918 150.706C27.9688 151.75 32.9914 152.833 32.9914 152.833C32.9914 152.833 31.7601 147.851 30.678 146.806C30.4239 146.547 30.1204 146.341 29.7853 146.201C29.4503 146.061 29.0905 145.989 28.7272 145.989C28.3638 145.99 28.0043 146.063 27.6698 146.205C27.3353 146.347 27.0326 146.554 26.7795 146.814C26.5263 147.074 26.328 147.382 26.1961 147.721C26.0641 148.059 26.0013 148.42 26.0113 148.782C26.0213 149.145 26.1039 149.502 26.2542 149.832C26.4045 150.163 26.6196 150.46 26.8866 150.706H26.8918Z" fill="#06A5FF"/>
<path d="M24.0463 163.275C25.388 163.95 30.5057 163.483 30.5057 163.483C30.5057 163.483 27.8402 159.096 26.4959 158.421C25.8533 158.114 25.1158 158.071 24.4415 158.3C23.7672 158.53 23.21 159.014 22.8894 159.65C22.5688 160.285 22.5103 161.021 22.7266 161.698C22.9429 162.376 23.4167 162.942 24.0463 163.275Z" fill="#06A5FF"/>
<path d="M22.9508 175.871C24.1589 176.764 29.2817 177.155 29.2817 177.155C29.2817 177.155 27.395 172.38 26.1972 171.49C25.912 171.256 25.5823 171.083 25.2281 170.981C24.8739 170.878 24.5026 170.849 24.1366 170.894C23.7707 170.94 23.4178 171.059 23.0994 171.244C22.7809 171.43 22.5035 171.678 22.2841 171.974C22.0646 172.27 21.9077 172.607 21.8227 172.966C21.7378 173.324 21.7266 173.696 21.7899 174.059C21.8532 174.421 21.9897 174.767 22.191 175.076C22.3923 175.384 22.6543 175.649 22.961 175.853L22.9508 175.871Z" fill="#06A5FF"/>
<path d="M33.5774 138.665C33.5774 140.166 30.8554 144.517 30.8554 144.517C30.8554 144.517 28.1333 140.153 28.1333 138.665C28.1333 137.944 28.4201 137.252 28.9306 136.742C29.4411 136.233 30.1334 135.946 30.8554 135.946C31.5773 135.946 32.2697 136.233 32.7802 136.742C33.2906 137.252 33.5774 137.944 33.5774 138.665Z" fill="#06A5FF"/>
<path d="M38.0758 146.978C37.2584 148.236 32.606 150.413 32.606 150.413C32.606 150.413 32.6882 145.279 33.5056 144.024C33.8979 143.419 34.5149 142.994 35.2209 142.843C35.9268 142.692 36.6639 142.827 37.27 143.219C37.876 143.611 38.3014 144.227 38.4525 144.932C38.6036 145.637 38.4681 146.373 38.0758 146.978Z" fill="#06A5FF"/>
<path d="M37.8774 161.183C36.5357 161.858 31.418 161.394 31.418 161.394C31.418 161.394 34.0861 157.007 35.4278 156.332C36.072 156.008 36.8189 155.952 37.5041 156.178C38.1894 156.403 38.7568 156.891 39.0817 157.535C39.4065 158.178 39.4621 158.924 39.2363 159.608C39.0104 160.292 38.5216 160.859 37.8774 161.183Z" fill="#06A5FF"/>
<path d="M35.3046 171.9C34.0965 172.791 28.9736 173.184 28.9736 173.184C28.9736 173.184 30.8603 168.409 32.0581 167.516C32.3433 167.282 32.673 167.109 33.0272 167.007C33.3814 166.905 33.7528 166.875 34.1187 166.921C34.4846 166.966 34.8375 167.085 35.156 167.271C35.4744 167.456 35.7518 167.705 35.9712 168C36.1907 168.296 36.3477 168.634 36.4326 168.992C36.5176 169.35 36.5287 169.722 36.4654 170.085C36.4021 170.448 36.2656 170.794 36.0643 171.102C35.863 171.411 35.601 171.675 35.2943 171.88L35.3046 171.9Z" fill="#06A5FF"/>
<path d="M26.8918 150.706C27.9688 151.75 32.9914 152.833 32.9914 152.833C32.9914 152.833 31.7601 147.851 30.678 146.806C30.4239 146.547 30.1204 146.341 29.7853 146.201C29.4503 146.061 29.0905 145.989 28.7272 145.989C28.3638 145.99 28.0043 146.063 27.6698 146.205C27.3353 146.347 27.0326 146.554 26.7795 146.814C26.5263 147.074 26.328 147.382 26.1961 147.721C26.0641 148.059 26.0013 148.42 26.0113 148.782C26.0213 149.145 26.1039 149.502 26.2542 149.832C26.4045 150.163 26.6196 150.46 26.8866 150.706H26.8918Z" fill="#06A5FF"/>
<path d="M24.0463 163.275C25.388 163.95 30.5057 163.483 30.5057 163.483C30.5057 163.483 27.8402 159.096 26.4959 158.421C25.8533 158.114 25.1158 158.071 24.4415 158.3C23.7672 158.53 23.21 159.014 22.8894 159.65C22.5688 160.285 22.5103 161.021 22.7266 161.698C22.9429 162.376 23.4167 162.942 24.0463 163.275Z" fill="#06A5FF"/>
<path d="M22.9508 175.871C24.1589 176.764 29.2817 177.155 29.2817 177.155C29.2817 177.155 27.395 172.38 26.1972 171.49C25.912 171.256 25.5823 171.083 25.2281 170.981C24.8739 170.878 24.5026 170.849 24.1366 170.894C23.7707 170.94 23.4178 171.059 23.0994 171.244C22.7809 171.43 22.5035 171.678 22.2841 171.974C22.0646 172.27 21.9077 172.607 21.8227 172.966C21.7378 173.324 21.7266 173.696 21.7899 174.059C21.8532 174.421 21.9897 174.767 22.191 175.076C22.3923 175.384 22.6543 175.649 22.961 175.853L22.9508 175.871Z" fill="#06A5FF"/>
<path d="M21.8481 182.681C21.8481 182.681 26.2461 181.808 27.4182 180.646C28.5903 179.483 33.87 177.447 34.456 178.903C35.0421 180.358 42.3729 185.297 37.3889 186.17C32.4048 187.042 25.6601 187.332 24.1924 186.752C22.7247 186.172 21.8481 182.681 21.8481 182.681Z" fill="#A8A8A8"/>
<path opacity="0.2" d="M37.3889 185.628C32.4023 186.501 25.6601 186.791 24.1924 186.208C23.0768 185.767 22.3005 183.641 21.9947 182.648L21.8481 182.679C21.8481 182.679 22.7272 186.167 24.1924 186.75C25.6575 187.332 32.4023 187.04 37.3889 186.167C38.8257 185.91 39.237 185.325 39.0828 184.576C38.9542 185.063 38.4582 185.441 37.3889 185.628Z" fill="black"/>
<path opacity="0.1" d="M88.376 208.748C98.4828 212.138 110.813 210.075 122.28 210.316C123.85 210.349 125.513 210.447 126.773 211.032C128.032 211.617 128.649 212.572 129.513 213.383C132.728 216.407 139.311 217.383 145.066 216.867C150.822 216.351 156.099 214.654 161.517 213.36C170.904 211.122 181.636 210.105 190.894 212.544C191.745 212.767 192.64 213.024 193.55 212.934C195.58 212.736 196.184 211.112 197.606 210.185C200.176 208.511 205.733 208.966 206.859 206.761C207.52 205.477 206.001 204.14 204.348 203.26C198.022 199.879 188.969 199.322 180.685 199.846C172.4 200.369 164.26 201.802 155.934 201.807C145.563 201.807 135.54 199.604 125.269 198.701C118.154 198.072 110.389 198.152 103.719 199.984C96.5036 201.994 94.91 206.471 88.376 208.748Z" fill="#06A5FF"/>
<path d="M182.482 182.894C182.538 182.404 182.621 181.916 182.708 181.429C183.094 179.316 182.505 177.304 182.194 176.475C182.104 176.218 182.037 176.072 182.037 176.072C180.477 175.648 174.326 180.407 172.095 182.201C171.324 182.201 170.475 182.235 169.558 182.296C169.157 182.324 168.753 182.335 168.352 182.327C167.992 182.327 167.481 182.327 166.884 182.327C164.805 180.656 158.376 175.627 156.772 176.064C156.772 176.064 156.708 176.208 156.616 176.467C156.315 177.296 155.729 179.308 156.102 181.421C156.192 181.909 156.271 182.396 156.328 182.887C156.449 183.962 156.898 186.018 158.533 187.412C158.88 189.953 160.191 193.293 161.199 195.32C161.274 195.704 161.389 196.079 161.541 196.44C161.124 198.041 160.646 200.133 160.769 200.824C160.769 200.824 158.597 200.298 158.376 202.911C158.376 202.936 158.376 202.965 158.376 202.99C157.59 203.352 156.611 204.174 157.713 205.901C157.846 206.113 158.046 206.275 158.281 206.361C158.477 206.43 158.667 206.43 158.646 206.155L160.006 207.695C160.006 207.695 162.469 207.978 162.497 206.55L162.641 206.574C162.972 206.622 163.319 206.663 163.669 206.699L163.839 207.264C163.839 207.264 161.99 207.226 162.494 208.36C162.494 208.36 162.959 208.791 163.119 208.635C163.119 208.635 162.88 209.379 163.839 209.379C163.839 209.379 164.867 209.928 165.275 209.538C165.684 209.148 166.517 208.558 166.597 208.322C166.62 208.257 166.63 207.677 166.633 206.876H166.792C168.848 206.925 171.043 206.858 173.038 206.751H173.197C173.197 207.621 173.21 208.257 173.233 208.327C173.313 208.563 174.154 209.151 174.555 209.543C174.956 209.936 175.991 209.384 175.991 209.384C176.95 209.384 176.711 208.64 176.711 208.64C176.871 208.796 177.336 208.365 177.336 208.365C177.85 207.231 175.991 207.269 175.991 207.269L176.21 206.545L177.238 206.461L177.397 206.445C177.3 207.998 179.888 207.7 179.888 207.7L181.248 206.16C181.227 206.435 181.418 206.435 181.613 206.366C181.848 206.28 182.048 206.118 182.181 205.906C183.847 203.303 180.767 202.751 180.767 202.751C180.672 202.726 180.575 202.711 180.477 202.705C180.477 202.659 180.477 202.613 180.477 202.569C180.514 202.228 180.521 201.885 180.497 201.542C180.382 201.073 179.621 200.328 178.662 200.21C178.038 200.133 178.022 197.261 178.089 195.269C178.159 194.894 178.191 194.513 178.187 194.132C178.193 193.518 178.107 192.907 177.93 192.32C179.156 190.246 180.138 188.074 180.243 187.42C181.914 186.018 182.361 183.965 182.482 182.894Z" fill="url(#paint0_linear)"/>
<path d="M180.114 202.702C180.016 204.055 179.754 206.227 179.754 206.227C179.754 206.227 178.664 206.36 176.981 206.512L175.839 206.609C174.96 206.679 173.979 206.748 172.94 206.807C171.017 206.912 168.907 206.976 166.92 206.93C165.925 206.907 164.961 206.856 164.067 206.768C163.669 206.73 163.296 206.684 162.913 206.627C160.633 206.288 159.011 205.639 158.862 204.497C158.79 204.016 158.772 203.529 158.808 203.044C159.021 200.477 161.121 200.99 161.121 200.99C160.985 200.282 161.494 198.08 161.892 196.486C162.149 195.482 162.373 194.72 162.373 194.72L177.084 193.734H177.132C177.23 193.734 177.327 193.754 177.417 193.793C177.506 193.831 177.587 193.888 177.655 193.959C177.722 194.029 177.774 194.113 177.808 194.205C177.842 194.296 177.857 194.394 177.852 194.491C177.765 196.252 177.639 200.287 178.366 200.377C179.292 200.492 180.024 201.224 180.135 201.686C180.159 202.025 180.152 202.365 180.114 202.702Z" fill="#D3899B"/>
<path d="M167.617 183.361C167.617 183.361 162.07 190.035 159.391 188.184C159.327 188.14 159.265 188.094 159.206 188.048C157.407 186.688 156.937 184.501 156.813 183.389C156.759 182.907 156.682 182.429 156.597 181.949C156.225 179.875 156.793 177.901 157.081 177.085C157.168 176.828 157.23 176.692 157.23 176.692C159.091 176.179 167.617 183.361 167.617 183.361Z" fill="#D3899B"/>
<path d="M164.647 183.977C164.647 183.977 162.9 185.209 160.435 187.209C160.055 187.522 159.65 187.803 159.224 188.048C157.425 186.688 156.954 184.501 156.831 183.389C156.777 182.907 156.7 182.429 156.615 181.949C156.242 179.875 156.81 177.901 157.098 177.085C160.535 177.326 164.647 183.977 164.647 183.977Z" fill="#EEC5CD"/>
<path opacity="0.1" d="M162.738 183.32C162.738 183.32 161.805 183.978 160.489 185.045C160.286 185.215 160.069 185.369 159.841 185.505C158.882 184.778 158.631 183.61 158.556 183.017C158.528 182.761 158.487 182.504 158.44 182.247C158.31 181.374 158.398 180.483 158.697 179.652C160.548 179.77 162.738 183.32 162.738 183.32Z" fill="black"/>
<path d="M171.213 183.361C171.213 183.361 176.762 190.035 179.438 188.184L179.623 188.048C181.423 186.688 181.89 184.501 182.014 183.389C182.068 182.907 182.147 182.429 182.232 181.949C182.602 179.875 182.037 177.901 181.746 177.085C181.659 176.828 181.595 176.692 181.595 176.692C179.742 176.179 171.213 183.361 171.213 183.361Z" fill="#D3899B"/>
<path d="M174.191 183.977C174.191 183.977 175.939 185.209 178.404 187.209C178.785 187.521 179.191 187.802 179.618 188.048C181.417 186.688 181.885 184.501 182.008 183.389C182.062 182.907 182.142 182.429 182.227 181.949C182.597 179.875 182.031 177.901 181.741 177.085C178.294 177.326 174.191 183.977 174.191 183.977Z" fill="#EEC5CD"/>
<path opacity="0.1" d="M176.106 183.315C176.106 183.315 177.034 183.97 178.343 185.03C178.544 185.196 178.759 185.345 178.985 185.477C179.936 184.755 180.188 183.592 180.255 183.005C180.283 182.748 180.324 182.491 180.368 182.235C180.496 181.366 180.408 180.479 180.111 179.652C178.284 179.786 176.106 183.315 176.106 183.315Z" fill="black"/>
<path opacity="0.1" d="M177.088 193.739C176.389 194.846 175.644 195.844 174.962 196.442C172.754 198.39 163.252 197.623 162.624 197.52C162.496 197.5 162.226 197.115 161.887 196.493C162.144 195.49 162.367 194.727 162.367 194.727L177.088 193.739Z" fill="black"/>
<path d="M169.56 182.802C169.175 182.83 168.789 182.837 168.401 182.832C166.414 182.799 159.731 182.886 158.988 185.579C158.114 188.746 162.019 197.263 162.636 197.366C163.253 197.469 172.755 198.239 174.974 196.288C177.192 194.337 180.06 188.236 179.906 187.671C179.896 187.671 182.641 181.895 169.56 182.802Z" fill="#D3899B"/>
<path opacity="0.1" d="M169.352 187.953C169.352 187.953 164.468 187.201 162.155 192.012C161.695 192.945 161.493 193.984 161.569 195.022C161.645 196.059 161.996 197.058 162.587 197.915C163.358 198.988 164.471 199.787 166.031 199.142C169.504 197.718 169.352 187.953 169.352 187.953Z" fill="black"/>
<path opacity="0.1" d="M169.198 187.645C169.198 187.645 164.314 186.893 162 191.703C161.541 192.637 161.339 193.676 161.415 194.714C161.491 195.751 161.842 196.75 162.432 197.607C163.203 198.68 164.316 199.478 165.877 198.837C169.349 197.41 169.198 187.645 169.198 187.645Z" fill="black"/>
<path d="M169.198 187.8C169.198 187.8 164.314 187.047 162 191.858C161.541 192.792 161.339 193.831 161.415 194.868C161.491 195.906 161.842 196.904 162.432 197.762C163.203 198.834 164.316 199.633 165.877 198.988C169.349 197.569 169.198 187.8 169.198 187.8Z" fill="#EEC5CD"/>
<path d="M163.918 192.004C163.918 192.004 163.25 192.62 163.507 192.774C163.764 192.928 163.918 192.004 163.918 192.004Z" fill="#3F2B3B"/>
<path d="M164.648 192.792C164.648 192.792 164.285 193.595 164.542 193.685C164.799 193.775 164.956 193.108 164.956 193.108L164.648 192.792Z" fill="#3F2B3B"/>
<path d="M163.023 194.006C163.023 194.006 162.668 194.956 163.023 194.956C163.378 194.956 163.023 194.006 163.023 194.006Z" fill="#3F2B3B"/>
<path d="M162.592 196.542C162.592 196.542 163.304 198.364 165.162 198.236" stroke="#3F2B3B" stroke-miterlimit="10"/>
<path d="M164.252 197.084C164.252 197.084 164.997 197.803 165.794 197.289" stroke="#3F2B3B" stroke-miterlimit="10"/>
<path opacity="0.1" d="M169.969 187.953C169.969 187.953 174.853 187.201 177.166 192.012C177.626 192.945 177.829 193.984 177.753 195.022C177.677 196.06 177.325 197.059 176.734 197.915C175.963 198.988 174.85 199.787 173.292 199.142C169.815 197.718 169.969 187.953 169.969 187.953Z" fill="black"/>
<path opacity="0.1" d="M170.123 187.645C170.123 187.645 175.007 186.893 177.32 191.703C177.781 192.637 177.983 193.676 177.907 194.714C177.831 195.752 177.48 196.75 176.888 197.607C176.117 198.68 175.004 199.478 173.447 198.837C169.969 197.41 170.123 187.645 170.123 187.645Z" fill="black"/>
<path d="M170.123 187.8C170.123 187.8 175.007 187.047 177.32 191.858C177.781 192.791 177.983 193.83 177.907 194.868C177.831 195.906 177.48 196.905 176.888 197.762C176.117 198.834 175.004 199.633 173.447 198.988C169.969 197.569 170.123 187.8 170.123 187.8Z" fill="#EEC5CD"/>
<path d="M175.399 192.004C175.399 192.004 176.068 192.62 175.811 192.774C175.554 192.928 175.399 192.004 175.399 192.004Z" fill="#3F2B3B"/>
<path d="M174.672 192.792C174.672 192.792 175.037 193.595 174.777 193.685C174.518 193.775 174.363 193.108 174.363 193.108L174.672 192.792Z" fill="#3F2B3B"/>
<path d="M176.294 194.006C176.294 194.006 176.649 194.956 176.294 194.956C175.94 194.956 176.294 194.006 176.294 194.006Z" fill="#3F2B3B"/>
<path d="M176.729 196.542C176.729 196.542 176.014 198.364 174.158 198.236" stroke="#3F2B3B" stroke-miterlimit="10"/>
<path d="M175.066 197.084C175.066 197.084 174.32 197.803 173.523 197.289" stroke="#3F2B3B" stroke-miterlimit="10"/>
<path d="M167.334 201.727C167.463 201.701 169.904 200.649 172.421 201.727H167.334Z" fill="#3F2B3B"/>
<path opacity="0.1" d="M162.913 206.627C160.633 206.288 159.011 205.639 158.862 204.497C158.79 204.016 158.772 203.529 158.808 203.044C159.082 202.898 159.375 202.791 159.679 202.726C160.093 202.61 160.605 202.687 161.684 202.982C162.764 203.277 162.687 204.561 162.918 206.214C162.939 206.351 162.937 206.491 162.913 206.627Z" fill="black"/>
<path d="M159.528 202.88C159.528 202.88 156.559 203.424 158.165 205.978C158.292 206.185 158.485 206.344 158.713 206.43C158.9 206.496 159.083 206.496 159.065 206.227L160.373 207.728C160.373 207.728 162.995 208.036 162.764 206.381C162.532 204.725 162.609 203.457 161.53 203.149C160.45 202.841 159.939 202.764 159.528 202.88Z" fill="#D3899B"/>
<path d="M160.231 204.6C160.231 204.6 160.861 206.037 161.735 204.831" stroke="#3F2B3B" stroke-miterlimit="10"/>
<path d="M158.79 205.164C158.79 205.164 159.116 206.519 160.348 205.508" stroke="#3F2B3B" stroke-miterlimit="10"/>
<path opacity="0.1" d="M180.114 202.703C180.016 204.055 179.754 206.227 179.754 206.227C179.754 206.227 178.664 206.36 176.98 206.512C176.971 206.417 176.971 206.322 176.98 206.227C177.212 204.574 177.134 203.303 178.214 202.995C179.206 202.715 179.72 202.626 180.114 202.703Z" fill="black"/>
<path d="M180.383 202.88C180.383 202.88 183.35 203.424 181.746 205.978C181.617 206.185 181.424 206.344 181.196 206.43C181.008 206.496 180.826 206.496 180.846 206.227L179.535 207.728C179.535 207.728 176.916 208.036 177.147 206.381C177.379 204.725 177.302 203.457 178.379 203.149C179.456 202.841 179.97 202.764 180.383 202.88Z" fill="#D3899B"/>
<path d="M179.678 204.6C179.678 204.6 179.048 206.037 178.174 204.831" stroke="#3F2B3B" stroke-miterlimit="10"/>
<path d="M181.122 205.164C181.122 205.164 180.795 206.519 179.562 205.508" stroke="#3F2B3B" stroke-miterlimit="10"/>
<path opacity="0.1" d="M166.92 206.93C165.925 206.907 164.961 206.856 164.067 206.768L163.18 203.781C163.102 203.52 163.081 203.246 163.118 202.977C163.156 202.708 163.25 202.45 163.396 202.22C163.542 201.99 163.735 201.795 163.963 201.646C164.191 201.498 164.448 201.4 164.717 201.359C164.986 201.318 165.261 201.335 165.523 201.41C165.784 201.484 166.027 201.614 166.235 201.79C166.442 201.966 166.609 202.184 166.725 202.43C166.84 202.676 166.902 202.944 166.905 203.216C166.912 204.389 166.923 205.862 166.92 206.93Z" fill="black"/>
<path d="M163.026 203.781L164.072 207.305C164.072 207.305 162.29 207.267 162.786 208.383C162.786 208.383 163.234 208.807 163.388 208.64C163.388 208.64 163.159 209.371 164.082 209.371C164.082 209.371 165.082 209.908 165.467 209.525C165.853 209.143 166.665 208.563 166.753 208.332C166.801 208.18 166.786 205.234 166.771 203.198C166.766 202.698 166.563 202.219 166.207 201.867C165.851 201.514 165.37 201.317 164.869 201.317C164.568 201.312 164.27 201.378 164 201.511C163.731 201.643 163.496 201.838 163.316 202.078C163.136 202.319 163.016 202.599 162.966 202.895C162.915 203.191 162.936 203.494 163.026 203.781Z" fill="#D3899B"/>
<path d="M164.44 208.216C164.44 208.216 163.668 208.961 164.072 209.384" stroke="#3F2B3B" stroke-miterlimit="10"/>
<path d="M164.098 207.751C164.098 207.751 163.378 207.985 163.378 208.652" stroke="#3F2B3B" stroke-miterlimit="10"/>
<path opacity="0.1" d="M176.76 203.239C176.76 203.422 176.733 203.605 176.68 203.781L175.84 206.604C174.961 206.673 173.979 206.743 172.94 206.802C172.94 205.747 172.94 204.34 172.956 203.208C172.958 202.704 173.16 202.222 173.518 201.867C173.877 201.513 174.361 201.314 174.866 201.316C175.37 201.318 175.853 201.521 176.208 201.878C176.564 202.236 176.762 202.72 176.76 203.224V203.239Z" fill="black"/>
<path d="M176.831 203.78L175.785 207.305C175.785 207.305 177.567 207.266 177.071 208.383C177.071 208.383 176.623 208.806 176.469 208.639C176.469 208.639 176.7 209.371 175.775 209.371C175.775 209.371 174.778 209.907 174.39 209.525C174.001 209.143 173.194 208.562 173.104 208.331C173.053 208.18 173.068 205.233 173.086 203.198C173.09 202.697 173.292 202.219 173.648 201.866C174.004 201.514 174.485 201.316 174.986 201.316C175.287 201.311 175.585 201.377 175.855 201.509C176.125 201.642 176.36 201.836 176.54 202.077C176.72 202.317 176.841 202.597 176.891 202.893C176.942 203.19 176.921 203.494 176.831 203.78Z" fill="#D3899B"/>
<path d="M175.418 208.216C175.418 208.216 176.189 208.961 175.786 209.384" stroke="#3F2B3B" stroke-miterlimit="10"/>
<path d="M175.76 207.751C175.76 207.751 176.48 207.985 176.48 208.652" stroke="#3F2B3B" stroke-miterlimit="10"/>
<path opacity="0.1" d="M169.198 187.029C169.198 187.029 165.576 186.914 165.461 189.722C165.345 192.53 171.116 191.339 171.116 191.339C171.116 191.339 173.545 191.013 173.121 189.309C172.696 187.604 171.82 187.183 169.198 187.029Z" fill="black"/>
<path opacity="0.1" d="M169.198 186.721C169.198 186.721 165.576 186.606 165.461 189.414C165.345 192.222 171.116 191.031 171.116 191.031C171.116 191.031 173.545 190.705 173.121 189.001C172.696 187.296 171.82 186.875 169.198 186.721Z" fill="black"/>
<path d="M169.198 186.875C169.198 186.875 165.576 186.76 165.461 189.568C165.345 192.376 171.116 191.185 171.116 191.185C171.116 191.185 173.545 190.859 173.121 189.155C172.696 187.45 171.82 187.029 169.198 186.875Z" fill="#3F2B3B"/>
<path opacity="0.1" d="M161.113 200.996C161.113 200.996 162.327 201.432 162.573 202.264L161.113 200.996Z" fill="black"/>
<path opacity="0.1" d="M178.366 200.393C178.366 200.393 177.497 200.757 177.557 202.277L178.366 200.393Z" fill="black"/>
<path d="M161.582 207.321C161.852 207.165 161.862 206.676 161.604 206.229C161.345 205.782 160.916 205.547 160.646 205.703C160.376 205.858 160.366 206.347 160.624 206.794C160.882 207.241 161.311 207.477 161.582 207.321Z" fill="#EEC5CD"/>
<path d="M180.19 206.032C180.448 205.583 180.438 205.093 180.166 204.937C179.894 204.781 179.464 205.018 179.206 205.467C178.948 205.916 178.959 206.407 179.23 206.563C179.502 206.719 179.932 206.481 180.19 206.032Z" fill="#EEC5CD"/>
<path d="M162.157 104.24C161.322 103.968 156.404 100.162 156.034 98.4392C155.664 96.7169 158.63 80.6765 158.63 80.6765C158.63 80.6765 158.358 80.6637 157.921 80.6226V80.3659L158.53 59.2894C158.53 59.2894 161.034 45.1537 156.304 45.9674C151.575 46.7811 154.541 59.2894 154.541 59.2894C154.541 59.2894 154.001 65.6347 153.623 67.5393C153.256 69.3721 151.605 76.8468 152.734 79.1698C152.774 79.2529 152.82 79.3327 152.873 79.4085C152.873 79.4085 153.058 87.3812 151.017 88.4695C149.068 89.4963 148.259 94.7224 148.189 95.1921L148.086 95.1459C147.506 94.7917 146.994 94.3361 146.575 93.8009C146.537 93.747 146.501 93.688 146.462 93.6315C147.789 92.1798 148.507 90.2743 148.468 88.3089C148.428 86.3435 147.633 84.4685 146.249 83.0714L146.056 82.884C146.215 82.7262 146.333 82.5313 146.398 82.3168C146.758 81.2335 145.513 80.3634 144.868 79.6857C143.375 78.0994 142.028 76.1563 139.946 75.2579C140.543 75.5958 141.095 76.0062 141.591 76.4797C140.962 75.9383 140.243 75.5124 139.465 75.222C137.286 74.4519 134.777 75.0885 132.875 76.3873C130.973 77.6861 129.567 79.5574 128.281 81.444L127.659 82.3681C127.115 81.7573 126.522 81.1916 125.886 80.6765C124.68 79.7704 122.269 76.78 122.269 76.78C122.269 76.78 114.756 69.1667 114.198 67.0824C113.64 64.9981 106.13 52.4898 104.459 54.6665C102.788 56.8432 110.209 66.356 110.209 66.356C110.209 66.356 111.602 69.8007 112.715 70.9764C113.828 72.152 122.082 83.9365 122.082 83.9365L122.781 85.3482L122.912 85.6049L122.824 85.5561V87.2785L123.596 87.3478C123.253 87.6507 122.94 87.985 122.66 88.3463C122.241 88.9537 121.93 89.6283 121.74 90.3408C120.524 94.3528 121.02 98.7447 122.588 102.639C122.912 103.439 123.282 104.238 123.38 105.093C123.521 106.289 123.123 107.472 122.881 108.655C122.547 110.316 122.56 112.126 123.395 113.607C124.513 115.573 127.019 116.597 129.292 116.23C130.329 116.055 131.31 115.638 132.155 115.013C133.22 114.276 134.079 113.279 134.651 112.118C135.075 111.253 135.34 110.321 135.761 109.454C135.841 109.287 135.931 109.128 136.018 108.966C136.98 110.041 137.843 111.019 137.843 111.019C137.843 111.019 139.884 120.807 138.121 123.525C137.183 124.893 136.048 126.114 134.751 127.15C134.424 127.419 134.124 127.719 133.854 128.045C133.679 128.171 133.576 128.238 133.576 128.238C133.576 128.238 133.53 128.369 133.463 128.569C133.05 129.176 132.75 129.854 132.579 130.569C132.515 130.751 132.492 130.946 132.512 131.138C132.638 131.395 131.605 132.422 131.908 132.861C129.338 135.813 128.844 140.289 128.844 140.289L124.158 147.269C121.747 153.475 118.131 154.112 118.131 154.112C118.131 154.112 109.649 148.537 109.409 148.265C109.17 147.993 105.932 146.635 105.932 146.635C105.547 145.973 104.963 145.449 104.264 145.138C103.151 144.686 103.058 143.01 103.058 143.01C102.919 139.068 100.552 138.749 100.552 138.749C98.6446 138.593 97.1846 138.924 96.0665 139.532L95.7272 139.558C94.0847 139.689 92.1055 139.832 89.9309 139.974C83.8981 140.364 82.4638 144.188 82.4638 144.188C82.4638 144.188 81.721 145.002 82.6952 145.885C83.6694 146.768 89.8923 145.901 90.1494 145.865C89.6754 145.917 89.1958 145.885 88.7331 145.77C89.715 145.734 91.0619 145.7 92.2083 145.698H92.4885C92.4162 146.294 92.3818 146.894 92.3856 147.495C92.3856 148.629 95.5858 149.353 95.5858 149.353L105.325 157.824C105.325 157.824 111.448 160.498 115.35 164.349C119.252 168.199 122.678 164.893 122.678 164.893C126.791 163.897 138.668 149.864 138.679 149.851C138.679 150.282 138.936 163.91 139.409 166.648C139.427 166.787 139.462 166.923 139.512 167.054C140.069 168.235 139.327 171.451 138.997 172.811C138.668 174.172 138.764 176.254 138.764 176.254C138.764 176.254 134.317 192.918 134.7 194.368C135.083 195.818 132.286 202.615 132.286 202.615V208.278C132.286 208.278 132.464 208.278 132.772 208.255C132.708 208.344 132.65 208.438 132.597 208.535C132.586 208.554 132.575 208.575 132.566 208.596C132.566 208.596 135.533 209.23 137.527 209.048C139.522 208.866 142.953 210.555 142.953 210.555C142.953 210.555 144.115 211.089 147.685 211.325C151.256 211.561 151.256 209.785 151.256 209.785C150.845 207.374 145.208 206.571 145.03 206.548C144.575 206.268 144.149 205.963 143.799 205.701L143.724 205.642C143.751 205.59 143.773 205.536 143.789 205.48C144.393 203.077 141.054 202.035 141.054 202.035V201.447C143.231 200.359 143.65 192.882 143.65 192.882C143.65 192.882 146.896 183.641 147.359 182.101C147.822 180.561 147.359 178.251 147.359 178.251L147.685 176.259C147.685 176.259 148.38 174.898 148.38 174.626C148.472 173.934 148.744 173.278 149.169 172.724C149.683 172.134 148.613 170.73 148.613 170.73L149.541 168.373V165.776L151.718 156.396C151.718 156.396 153.993 145.474 153.204 141.894C152.415 138.313 154.132 136.503 154.132 136.503C153.977 136.583 153.817 136.654 153.654 136.716C153.873 136.226 154.061 135.723 154.217 135.21L159.101 135.802C159.101 135.844 159.101 135.872 159.101 135.872H160.861C160.861 135.872 160.306 129.165 160.306 126.446C160.306 123.728 162.162 114.03 162.162 114.03C162.162 114.03 162.99 104.512 162.157 104.24ZM140.499 96.2831C140.499 96.3216 140.499 96.3575 140.499 96.3934C140.499 96.6501 140.473 96.935 140.455 97.2148L140.357 97.3637L140.18 97.2123L139.956 97.5485C139.917 97.3356 139.931 97.1164 139.998 96.9104C140.064 96.7044 140.181 96.518 140.337 96.3678C140.389 96.3369 140.443 96.3095 140.499 96.2856V96.2831ZM156.723 127.683H156.831L156.656 128.125C156.679 127.981 156.7 127.835 156.723 127.686V127.683ZM138.908 207.872L138.242 207.711L138.612 207.649L138.946 207.867L138.987 207.893L138.908 207.872ZM145.704 206.923C145.483 206.807 145.259 206.666 145.043 206.543C145.112 206.581 145.398 206.727 145.704 206.923Z" fill="url(#paint1_linear)"/>
<path d="M158.345 120.899L154.091 131.968L153.495 131.48L151.125 135.153L158.345 136.052V120.899Z" fill="#F1D2D7"/>
<path opacity="0.1" d="M158.34 120.899L154.083 131.968L153.014 131.68L151.117 135.153L158.34 136.052V120.899Z" fill="black"/>
<path d="M151.678 127.981H158.345L160.792 107.867H151.678V127.981Z" fill="#F1D2D7"/>
<path opacity="0.1" d="M151.678 127.981H158.345L160.792 107.867H151.678V127.981Z" fill="black"/>
<path d="M138.654 112.631L140.091 112.375L143.399 111.836C143.399 111.836 153.333 109.603 155.392 109.423C156.677 109.31 158.099 108.781 158.991 108.396C159.528 108.168 159.87 107.991 159.87 107.991L156.292 101.463L150.74 97.3561C150.74 97.3561 147.229 96.6091 145.74 94.5685C145.41 94.129 145.194 93.6139 145.114 93.07C145.034 92.5262 145.091 91.971 145.28 91.4549C146.188 88.6467 139.867 94.1372 139.867 94.1372C139.867 94.1372 139.929 95.4515 139.867 97.1276C139.867 97.4588 139.836 97.8027 139.813 98.1544C139.797 98.3854 139.777 98.6164 139.756 98.8526C139.6 100.516 139.283 102.231 138.661 103.255C137.145 105.747 138.654 112.631 138.654 112.631Z" fill="#FFBEC7"/>
<path opacity="0.1" d="M139.861 97.2534H140C140.257 97.2534 140.455 96.7195 140.702 96.6938C142.678 96.5039 144.483 96.0906 145.737 94.6942C145.407 94.2544 145.192 93.7393 145.112 93.1957C145.032 92.652 145.088 92.0969 145.277 91.5806C146.185 88.7725 139.879 94.2604 139.879 94.2604C139.879 94.2604 139.928 95.5747 139.861 97.2534Z" fill="black"/>
<path d="M132.168 89.2985C132.171 91.3386 132.985 93.294 134.431 94.7354C135.877 96.1767 137.836 96.9863 139.879 96.9863C140.13 96.9864 140.38 96.9735 140.63 96.9478C142.113 96.8026 143.523 96.2305 144.687 95.3008C145.851 94.3711 146.72 93.1239 147.188 91.7106C147.656 90.2972 147.703 88.7786 147.324 87.3391C146.944 85.8995 146.154 84.601 145.05 83.6011C143.946 82.6013 142.574 81.9431 141.102 81.7066C139.631 81.47 138.122 81.6653 136.759 82.2686C135.396 82.8719 134.238 83.8574 133.426 85.1053C132.613 86.3532 132.18 87.8099 132.181 89.2985H132.168Z" fill="#FFBEC7"/>
<path opacity="0.1" d="M132.168 89.2989C132.171 91.339 132.985 93.2943 134.431 94.7357C135.877 96.1771 137.836 96.9866 139.879 96.9866C140.13 96.9867 140.38 96.9739 140.63 96.9481C140.767 96.8918 140.888 96.8038 140.984 96.6914C141.074 96.5545 141.133 96.3999 141.157 96.2382C141.181 96.0764 141.169 95.9114 141.123 95.7545C140.82 94.2529 139.455 93.1748 138.964 91.722C138.532 90.4385 138.856 88.9831 139.519 87.7972C140.182 86.6113 141.162 85.6334 142.128 84.6734C142.291 84.485 142.495 84.3373 142.725 84.2421C143.547 83.9854 144.781 84.7042 145.434 83.97C144.368 82.8696 142.997 82.1115 141.497 81.7928C139.998 81.474 138.437 81.6089 137.014 82.1804C135.592 82.7518 134.372 83.7338 133.511 85.0008C132.65 86.2679 132.187 87.7625 132.181 89.2937L132.168 89.2989Z" fill="black"/>
<path d="M142.442 84.1135C142.211 84.2077 142.007 84.3555 141.846 84.5447C140.882 85.5047 139.902 86.4802 139.239 87.6686C138.576 88.8571 138.252 90.3022 138.684 91.5908C139.172 93.0462 140.54 94.1243 140.84 95.6259C140.886 95.7824 140.898 95.947 140.874 96.1083C140.85 96.2696 140.791 96.4238 140.702 96.5602C140.445 96.8811 139.956 96.899 139.622 97.1403C139.195 97.4509 139.108 98.067 139.237 98.5778C139.411 99.0751 139.648 99.5479 139.943 99.9844C140.663 101.255 140.972 102.908 140.2 104.143C139.837 104.647 139.404 105.097 138.915 105.48C138.105 106.198 137.355 106.982 136.674 107.824C136.087 108.523 135.584 109.29 135.178 110.108C134.772 110.963 134.515 111.884 134.106 112.739C133.147 114.739 131.261 116.333 129.068 116.695C126.875 117.057 124.457 116.045 123.38 114.107C122.567 112.644 122.557 110.86 122.878 109.23C123.107 108.065 123.495 106.897 123.362 105.716C123.264 104.874 122.907 104.086 122.591 103.296C121.079 99.4454 120.598 95.1228 121.771 91.1647C121.954 90.4633 122.255 89.7977 122.66 89.1959C123.086 88.6703 123.555 88.1817 124.063 87.7353C125.665 86.1721 126.845 84.2393 128.086 82.3783C129.328 80.5173 130.68 78.6692 132.517 77.3883C134.355 76.1075 136.774 75.4734 138.877 76.2409C141.077 77.0444 142.437 79.0927 143.964 80.7406C144.583 81.4132 145.786 82.2679 145.439 83.3383C144.933 84.8476 143.406 83.8106 142.442 84.1135Z" fill="#493545"/>
<path opacity="0.1" d="M128.662 116.328C130.852 115.966 132.739 114.372 133.698 112.369C134.109 111.517 134.363 110.596 134.772 109.741C135.178 108.923 135.679 108.156 136.266 107.456C136.949 106.615 137.699 105.83 138.51 105.11C138.999 104.728 139.432 104.278 139.795 103.773C140.566 102.538 140.27 100.885 139.553 99.6172C139.258 99.1793 139.02 98.7058 138.844 98.208C138.71 97.6947 138.803 97.0812 139.229 96.7732C139.566 96.5319 140.049 96.5165 140.311 96.193C140.401 96.0566 140.46 95.9024 140.484 95.7411C140.508 95.5798 140.496 95.4152 140.45 95.2587C140.147 93.7545 138.779 92.679 138.291 91.2236C137.859 89.9402 138.181 88.4873 138.846 87.2989C139.512 86.1104 140.486 85.1401 141.442 84.175C141.605 83.9871 141.811 83.8402 142.041 83.7463C143.003 83.4434 144.532 84.4804 145.026 82.9634C145.373 81.8931 144.17 81.0357 143.55 80.3658C142.237 78.9463 141.044 77.2316 139.332 76.2588C141.34 77.1367 142.64 79.0592 144.087 80.6225C144.707 81.2924 145.91 82.1472 145.563 83.2176C145.069 84.7346 143.54 83.6976 142.579 84.0004C142.348 84.0952 142.143 84.243 141.98 84.4317C141.016 85.3917 140.039 86.3671 139.373 87.5556C138.707 88.744 138.386 90.1892 138.818 91.4803C139.306 92.9331 140.674 94.0112 140.977 95.5128C141.023 95.6693 141.034 95.8339 141.01 95.9952C140.987 96.1565 140.928 96.3107 140.838 96.4472C140.581 96.768 140.09 96.786 139.756 97.0298C139.329 97.3379 139.242 97.9539 139.371 98.4647C139.544 98.9626 139.783 99.4355 140.08 99.8714C140.797 101.142 141.108 102.795 140.322 104.03C139.958 104.534 139.526 104.984 139.036 105.367C138.227 106.087 137.476 106.87 136.793 107.711C136.207 108.411 135.705 109.178 135.299 109.995C134.89 110.852 134.636 111.771 134.225 112.626C133.266 114.626 131.379 116.22 129.189 116.582C127.894 116.784 126.569 116.544 125.429 115.899C126.443 116.348 127.566 116.497 128.662 116.328Z" fill="black"/>
<path d="M136.818 206.039L138.163 206.925L138.366 207.061L138.407 207.089L139.998 208.139L143.71 208.765L146.979 208.542C146.979 208.542 147.92 206.576 146.442 206.619C145.968 206.597 145.505 206.465 145.09 206.234L144.889 206.129C144.676 206.016 144.46 205.89 144.252 205.757C143.815 205.48 143.401 205.179 143.064 204.92C142.576 204.543 142.25 204.255 142.25 204.255L136.818 206.039Z" fill="#FFBEC7"/>
<path opacity="0.1" d="M138.173 206.93L138.376 207.066L138.417 207.095L140.008 208.144L143.72 208.771L146.989 208.547C146.989 208.547 147.93 206.581 146.452 206.625C145.978 206.602 145.515 206.47 145.1 206.24C145.337 206.377 145.519 206.592 145.614 206.848C145.673 207.361 143.198 208.26 143.198 208.26L139.705 207.338C139.705 207.338 139.111 207.172 138.296 206.961L138.219 206.94L138.173 206.93Z" fill="black"/>
<path d="M132.209 207.788C132.209 207.788 135.072 208.411 136.998 208.234C138.923 208.057 142.234 209.718 142.234 209.718C142.234 209.718 143.354 210.231 146.799 210.47C150.243 210.709 150.253 208.948 150.253 208.948C149.857 206.574 144.416 205.778 144.244 205.757C144.313 205.793 144.588 205.94 144.881 206.13C145.267 206.386 145.686 206.712 145.717 206.977C145.776 207.49 143.3 208.388 143.3 208.388L139.81 207.469C139.81 207.469 139.216 207.3 138.399 207.09L138.321 207.069C137.118 206.737 135.896 206.48 134.661 206.299C133.157 206.14 132.386 207.418 132.23 207.713C132.217 207.767 132.209 207.788 132.209 207.788Z" fill="#BD577A"/>
<path d="M87.0933 144.722L88.6149 145.885C88.6149 145.885 89.0571 145.864 89.7151 145.841H89.9259C90.8718 145.808 92.1724 145.775 93.2802 145.772C94.3084 145.772 95.1618 145.803 95.4188 145.893C96.19 146.149 97.5214 141.557 97.5214 141.557L95.9946 141.198L95.4805 141.08L95.1258 140.998L93.8869 140.708L90.1263 141.131L87.4865 142.83L87.0933 144.722Z" fill="#FFBEC7"/>
<path opacity="0.1" d="M87.0933 144.722L88.615 145.885C88.615 145.885 89.0571 145.865 89.7151 145.842C89.4141 145.723 89.1665 145.5 89.0185 145.213C88.034 142.487 92.9127 141.327 92.9127 141.327L95.1849 141.226L95.6245 141.208L95.9946 141.19L95.4805 141.072L95.1258 140.99L93.8869 140.7L90.1263 141.124L87.4865 142.823L87.0933 144.722Z" fill="black"/>
<path d="M84.0936 145.949C85.0138 146.801 91.0337 145.964 91.2908 145.928C90.833 145.981 90.3695 145.948 89.9233 145.833C89.0828 145.597 88.8797 145.079 88.8797 145.079C87.8978 142.353 92.7739 141.19 92.7739 141.19L95.0487 141.092L95.4883 141.072L101.01 140.833L101.279 139.313C101.279 139.313 99.4801 139.485 96.6681 139.709C95.0822 139.837 93.1698 139.981 91.0749 140.117C85.2529 140.502 83.8777 144.275 83.8777 144.275C83.8777 144.275 83.1657 145.079 84.0936 145.949Z" fill="#BD577A"/>
<path d="M151.68 80.1246C151.718 80.2063 151.762 80.2852 151.811 80.3607L153.156 82.3269L156.646 82.6863L156.685 81.3053L157.271 60.5137C157.271 60.5137 159.69 46.568 155.125 47.374C150.56 48.18 153.423 60.5137 153.423 60.5137C153.423 60.5137 152.909 66.7717 152.536 68.6481C152.184 70.4603 150.59 77.8323 151.68 80.1246Z" fill="#FFBEC7"/>
<path d="M143.846 131.76L144.838 133.459L147.061 137.258C147.061 137.258 151.097 138.734 152.125 137.615C152.693 136.999 153.302 134.86 153.732 133.066C154.084 131.606 154.318 130.374 154.318 130.374L143.846 131.76Z" fill="#FFBEC7"/>
<path opacity="0.1" d="M143.846 131.76L144.838 133.459C144.901 133.405 144.959 133.345 145.01 133.279C146.131 131.847 151.079 132.976 153.732 133.066C154.084 131.606 154.318 130.374 154.318 130.374L143.846 131.76Z" fill="black"/>
<path opacity="0.1" d="M93.2803 145.764C94.3084 145.764 95.1618 145.795 95.4189 145.885C96.19 146.141 97.5215 141.549 97.5215 141.549L95.5037 141.072L101.025 140.833L101.295 139.313C101.295 139.313 99.4955 139.485 96.6835 139.709C96.0974 140.042 95.5752 140.477 95.1413 140.992L95.0564 141.095C93.8818 142.535 93.4474 144.393 93.2803 145.764Z" fill="black"/>
<path opacity="0.1" d="M136.818 206.039L138.361 207.066C140.674 206.65 142.784 205.996 143.034 204.972C143.035 204.954 143.035 204.937 143.034 204.92C142.545 204.543 142.219 204.255 142.219 204.255L136.818 206.039Z" fill="black"/>
<path opacity="0.1" d="M132.237 207.726C134.279 207.627 136.313 207.409 138.329 207.074C137.126 206.742 135.904 206.485 134.669 206.304C133.165 206.152 132.394 207.431 132.237 207.726Z" fill="black"/>
<path d="M93.4473 147.538C93.4473 148.655 96.5318 149.371 96.5318 149.371L105.932 157.729C105.932 157.729 111.844 160.365 115.599 164.164C119.354 167.963 122.675 164.713 122.675 164.713C126.657 163.73 138.116 149.874 138.116 149.874C138.116 149.874 138.386 165.696 138.923 166.859C139.46 168.022 138.743 171.194 138.429 172.537C138.116 173.879 138.206 175.933 138.206 175.933C138.206 175.933 133.908 192.335 134.268 193.765C134.628 195.195 131.939 201.899 131.939 201.899V207.487C131.939 207.487 142.457 207.084 143.038 204.715C143.619 202.346 140.398 201.319 140.398 201.319V200.726C142.501 199.653 142.905 192.279 142.905 192.279C142.905 192.279 146.038 183.159 146.485 181.654C146.932 180.15 146.485 177.853 146.485 177.853L146.799 175.887C146.799 175.887 147.47 174.547 147.47 174.28C147.56 173.598 147.826 172.95 148.241 172.401C148.734 171.821 147.704 170.435 147.704 170.435L148.601 168.124V165.576L150.703 156.335C150.703 156.335 152.896 145.554 152.135 142.032C151.374 138.511 153.032 136.711 153.032 136.711C149.433 138.595 147.634 134.401 147.035 132.604C146.881 132.14 146.809 131.834 146.809 131.834C146.809 131.834 141.876 130.017 137.281 130.448C136.348 130.526 135.429 130.721 134.546 131.028C129.443 132.861 128.634 140.459 128.634 140.459L124.112 147.343C121.799 153.465 118.293 154.091 118.293 154.091C118.293 154.091 110.104 148.593 109.88 148.326C109.656 148.059 106.523 146.717 106.523 146.717C106.155 146.068 105.591 145.551 104.911 145.241C103.837 144.794 103.749 143.141 103.749 143.141C103.613 139.252 101.331 138.939 101.331 138.939C93.4036 138.241 93.4473 146.422 93.4473 147.538Z" fill="#E7AEB8"/>
<path d="M139.011 125.681H143.846V110.709H139.011V125.681Z" fill="#F1D2D7"/>
<path opacity="0.1" d="M138.563 125.068H143.398V110.095H138.563V125.068Z" fill="black"/>
<path opacity="0.1" d="M151.677 80.0913C151.677 80.1024 151.677 80.1136 151.677 80.1247C151.715 80.2064 151.759 80.2854 151.808 80.3608L153.153 82.3271L156.643 82.6864L156.682 81.3054C155.592 81.2105 153.114 80.9127 151.677 80.0913Z" fill="black"/>
<path d="M151.812 80.3608C151.812 80.3608 151.991 88.2257 150.012 89.2987C148.033 90.3716 147.277 95.9725 147.277 95.9725C147.277 95.9725 153.236 99.8947 154.577 101.62C155.919 103.345 158.962 107.454 158.338 108.437C157.713 109.42 159.87 113.889 159.87 113.889C159.87 113.889 155.929 121.936 156.826 124.975C157.723 128.015 157.811 136.059 157.811 136.059H159.507C159.507 136.059 158.97 129.444 158.97 126.762C158.97 124.08 160.769 114.516 160.769 114.516C160.769 114.516 161.574 105.129 160.769 104.862C159.965 104.595 155.22 100.839 154.857 99.14C154.495 97.4408 157.364 81.6186 157.364 81.6186C157.364 81.6186 153.693 81.4338 151.812 80.3608Z" fill="#F1D2D7"/>
<path opacity="0.1" d="M138.923 109.323C139.084 110.417 139.483 111.463 140.09 112.388L143.398 111.836C143.398 111.836 153.333 109.603 155.391 109.423C156.677 109.31 158.098 108.781 158.99 108.396C158.204 105.611 156.666 103.094 154.546 101.122L153.284 99.9538C151.423 98.2351 149.272 96.8601 146.93 95.8931C147.076 96.0188 157.499 104.905 155.217 106.648C152.934 108.391 146.793 104.135 146.793 104.135L139.805 98.1391L139.547 97.9209L139.141 98.5472C139.348 98.6327 139.55 98.7295 139.745 98.8372C142.122 100.145 143.883 102.339 144.647 104.939C146.089 109.764 138.923 109.323 138.923 109.323Z" fill="black"/>
<path opacity="0.1" d="M136.774 131.67C136.774 131.67 143.398 135.335 145 133.279C145.354 132.827 146.09 132.63 147.015 132.576C146.861 132.111 146.789 131.806 146.789 131.806C146.789 131.806 141.856 129.988 137.26 130.42C136.965 131.182 136.774 131.67 136.774 131.67Z" fill="black"/>
<path d="M139.82 97.9255L147.061 104.135C147.061 104.135 153.184 108.396 155.481 106.64C157.779 104.884 147.194 95.8823 147.194 95.8823C149.538 96.848 151.691 98.2231 153.551 99.9431L154.813 101.111C158.129 104.178 158.877 104.178 158.987 108.691C159.016 109.8 158.638 111.396 158.347 111.686C157.273 112.749 156.517 120.378 156.684 121.271C156.851 122.164 154.677 129.88 155.399 132.026C156.122 134.172 146.629 130.953 145.017 133.009C143.406 135.065 136.792 131.4 136.792 131.4C136.792 131.4 140.463 122.013 141.357 121.389C142.252 120.765 143.326 115.935 141.357 113.689C139.388 111.443 139.2 109.322 139.2 109.322C139.2 109.322 146.367 109.766 144.93 104.943C144.526 103.546 143.825 102.251 142.875 101.148C141.925 100.045 140.748 99.1597 139.424 98.5519L139.82 97.9255Z" fill="#E8E8F0"/>
<path opacity="0.1" d="M149.482 113.748C149.482 113.748 146.706 118.979 143.11 120.337C142.997 120.378 142.884 120.417 142.768 120.453C139.01 121.59 149.752 115.357 149.482 113.748Z" fill="black"/>
<path d="M110.635 67.4877C110.635 67.4877 111.977 70.8862 113.052 72.0465C114.126 73.2067 122.092 84.8294 122.092 84.8294L122.768 86.2232L123.346 87.422L128.448 86.8855L128.806 84.832L128.61 84.5933C128.096 83.9798 126.7 82.3319 125.762 81.6132C124.6 80.7199 122.272 77.7629 122.272 77.7629C122.272 77.7629 115.021 70.2522 114.486 68.1987C113.951 66.1452 106.698 53.8063 105.086 55.9522C103.474 58.0981 110.635 67.4877 110.635 67.4877Z" fill="#FFBEC7"/>
<path opacity="0.1" d="M122.768 86.2237L123.346 87.4224L128.448 86.886L128.805 84.8325L128.61 84.5938C128.06 84.8633 123.981 86.8167 122.768 86.2237Z" fill="black"/>
<path opacity="0.1" d="M141.607 99.6686C141.607 99.6686 140.355 97.7024 139.638 98.2389C138.921 98.7753 138.643 96.6294 138.245 96.9862C137.846 97.343 136.638 98.3415 136.147 96.9452C135.756 95.8363 131.52 88.8288 129.793 86.0052L129.076 84.8296C129.076 84.8296 124.241 87.245 123.079 86.439V88.1383L124.064 88.2281L129.343 98.0592C129.343 98.0592 131.004 100.69 130.885 101.612C130.767 102.533 133.009 106.553 133.366 106.82C133.723 107.087 137.574 111.558 137.574 111.558C137.574 111.558 139.543 121.212 137.831 123.895C136.119 126.577 133.176 128.543 133.176 128.543C133.176 128.543 132.289 131.133 132.405 131.403C132.52 131.672 131.376 132.832 131.908 133.2C132.441 133.567 133.163 136.062 133.163 136.062C133.163 136.062 135.669 132.039 137.018 131.413C138.368 130.787 140.103 122.562 140.103 122.562C140.103 122.562 140.596 117.714 140.638 114.585C140.679 111.456 140.532 99.6686 141.607 99.6686Z" fill="black"/>
<path d="M141.339 99.6686C141.339 99.6686 140.084 97.7024 139.37 98.2389C138.655 98.7753 138.375 96.6294 137.977 96.9862C137.578 97.343 136.37 98.3415 135.879 96.9452C135.486 95.8363 131.252 88.8288 129.525 86.0052C129.083 85.2788 128.805 84.8296 128.805 84.8296C128.805 84.8296 123.973 87.245 122.809 86.439V88.1383L123.793 88.2281L129.075 98.0592C129.075 98.0592 130.733 100.69 130.618 101.612C130.502 102.533 132.743 106.553 133.101 106.82C133.458 107.087 137.308 111.558 137.308 111.558C137.308 111.558 139.277 121.212 137.565 123.895C136.665 125.239 135.57 126.444 134.316 127.468C133.269 128.336 132.533 129.521 132.219 130.843C132.158 131.023 132.137 131.214 132.157 131.403C132.288 131.659 131.129 132.832 131.661 133.2C132.193 133.567 132.913 136.062 132.913 136.062C132.913 136.062 135.419 132.039 136.769 131.413C138.118 130.787 139.853 122.562 139.853 122.562C139.853 122.562 140.344 117.714 140.385 114.585C140.426 111.456 140.264 99.6686 141.339 99.6686Z" fill="#F1D2D7"/>
<path opacity="0.1" d="M129.076 140.34C129.076 140.34 132.837 141.056 134.358 142.137C135.88 143.218 128.629 140.438 128.629 140.438L129.076 140.34Z" fill="black"/>
<path opacity="0.1" d="M138.116 149.861C138.116 149.861 142.054 153.123 141.34 156.075C140.625 159.027 138.821 166.445 138.821 166.445L138.116 149.861Z" fill="black"/>
<path opacity="0.1" d="M103.811 143.583C103.811 143.583 98.2824 144.186 98.6396 144.899C98.9969 145.613 103.811 144.242 103.811 144.242V143.583Z" fill="black"/>
<path opacity="0.1" d="M146.261 170.735C146.261 170.735 146.621 171.182 144.562 170.735C142.503 170.288 144.025 168.913 144.025 168.913L146.261 170.735Z" fill="black"/>
<path opacity="0.1" d="M145.548 176.903C145.548 176.903 142.72 177.35 141.227 176.903C139.733 176.456 145.548 176.903 145.548 176.903Z" fill="black"/>
<path opacity="0.1" d="M139.771 201.037C139.771 201.037 139.28 200.5 136.818 201.486C134.355 202.472 133.371 202.513 132.656 202.2C131.942 201.886 139.771 201.037 139.771 201.037Z" fill="black"/>
<path opacity="0.1" d="M142.504 142.823L139.011 147.672C139.011 147.672 140.892 143.426 142.504 142.823Z" fill="black"/>
<path opacity="0.1" d="M135.7 98.2314C135.7 98.2314 135.551 99.8409 133.299 100.467C131.048 101.093 130.621 101.604 130.621 101.604" fill="black"/>
<path opacity="0.1" d="M129.868 86.5674C129.868 86.5674 126.899 88.6773 123.794 88.2281L129.868 86.5674Z" fill="black"/>
<path opacity="0.1" d="M132.129 131.626C132.129 131.626 132.998 132.17 135.08 129.791L132.129 131.626Z" fill="black"/>
<path opacity="0.1" d="M153.759 106.412C153.844 105.978 153.541 105.572 153.245 105.234L152.662 104.538C152.548 104.395 152.421 104.263 152.281 104.145C151.937 103.876 151.479 103.794 151.114 103.552" fill="black"/>
<path d="M149.683 12.4772H111.397C110.754 12.4735 110.116 12.5963 109.521 12.8386C108.925 13.0809 108.383 13.438 107.926 13.8894C107.469 14.3409 107.105 14.8779 106.855 15.4697C106.606 16.0616 106.475 16.6967 106.472 17.3389V55.1462C106.475 55.7883 106.606 56.4235 106.855 57.0153C107.105 57.6072 107.469 58.1441 107.926 58.5956C108.383 59.047 108.925 59.4041 109.521 59.6464C110.116 59.8887 110.754 60.0115 111.397 60.0078H149.696C150.339 60.0115 150.976 59.8887 151.572 59.6464C152.167 59.4041 152.709 59.047 153.166 58.5956C153.624 58.1441 153.988 57.6072 154.237 57.0153C154.487 56.4235 154.617 55.7883 154.621 55.1462V17.3389C154.617 16.6956 154.486 16.0594 154.236 15.4667C153.986 14.874 153.621 14.3365 153.162 13.8849C152.703 13.4333 152.16 13.0765 151.563 12.8349C150.966 12.5934 150.327 12.4718 149.683 12.4772Z" fill="url(#paint2_linear)"/>
<path d="M149.549 12.4775H111.692C109.002 12.4775 106.821 14.6553 106.821 17.3417V55.1465C106.821 57.8329 109.002 60.0107 111.692 60.0107H149.549C152.239 60.0107 154.42 57.8329 154.42 55.1465V17.3417C154.42 14.6553 152.239 12.4775 149.549 12.4775Z" fill="#06A5FF"/>
<path d="M122.438 42.841C121.784 42.8406 121.15 43.0669 120.644 43.4811C120.138 43.8953 119.792 44.4719 119.664 45.1127C119.536 45.7534 119.635 46.4186 119.943 46.9949C120.251 47.5712 120.75 48.0229 121.354 48.273C121.959 48.5231 122.631 48.5562 123.257 48.3666C123.884 48.177 124.424 47.7764 124.788 47.2332C125.151 46.6899 125.315 46.0376 125.251 45.3874C125.186 44.7373 124.898 44.1294 124.436 43.6676C124.176 43.4018 123.865 43.1916 123.522 43.0495C123.179 42.9074 122.81 42.8365 122.438 42.841Z" fill="#EAEAF3"/>
<path d="M121.809 36.8829C121.812 36.1526 121.56 35.4441 121.098 34.8782C120.636 34.3124 119.991 33.9242 119.274 33.7799C118.557 33.6357 117.813 33.7443 117.167 34.0872C116.521 34.4301 116.015 34.9861 115.734 35.6603C115.453 36.3345 115.415 37.0852 115.626 37.7844C115.837 38.4835 116.285 39.0877 116.893 39.494C117.501 39.9002 118.231 40.0833 118.958 40.0121C119.686 39.9408 120.367 39.6196 120.884 39.1033C121.182 38.816 121.418 38.4708 121.577 38.0889C121.736 37.707 121.815 37.2965 121.809 36.8829Z" fill="#EAEAF3"/>
<path d="M140.061 29.6421C140.426 29.6408 140.779 29.5135 141.06 29.2818C141.34 29.0501 141.532 28.7283 141.602 28.3712C141.672 28.0141 141.616 27.6437 141.444 27.3233C141.271 27.0028 140.993 26.752 140.656 26.6135C140.319 26.475 139.944 26.4575 139.596 26.5638C139.247 26.6702 138.946 26.8938 138.744 27.1968C138.543 27.4997 138.452 27.8631 138.488 28.2252C138.525 28.5873 138.685 28.9256 138.943 29.1826C139.088 29.3316 139.262 29.4492 139.455 29.5282C139.647 29.6073 139.854 29.646 140.061 29.6421Z" fill="#EAEAF3"/>
<path d="M122.439 24.6161C121.639 24.6173 120.865 24.8951 120.247 25.4025C119.63 25.9098 119.207 26.6152 119.052 27.3985C118.897 28.1819 119.018 28.9947 119.396 29.6986C119.773 30.4025 120.384 30.954 121.123 31.2591C121.862 31.5642 122.684 31.604 123.449 31.3718C124.214 31.1397 124.875 30.6498 125.319 29.9858C125.763 29.3217 125.963 28.5244 125.884 27.7298C125.806 26.9351 125.454 26.1922 124.888 25.6275C124.571 25.301 124.189 25.0428 123.768 24.8689C123.347 24.695 122.894 24.6089 122.439 24.6161Z" fill="#EAEAF3"/>
<path d="M145.177 35.5356C144.867 35.2229 144.458 35.0273 144.02 34.9822C143.582 34.9371 143.141 35.0453 142.774 35.2883C142.407 35.5314 142.136 35.8942 142.006 36.3148C141.877 36.7354 141.898 37.1877 142.066 37.5945C142.234 38.0014 142.538 38.3375 142.926 38.5455C143.314 38.7534 143.762 38.8204 144.195 38.7349C144.627 38.6494 145.016 38.4168 145.295 38.0768C145.575 37.7367 145.727 37.3103 145.727 36.8704C145.731 36.6222 145.685 36.3757 145.59 36.1462C145.496 35.9166 145.355 35.7088 145.177 35.5356Z" fill="#EAEAF3"/>
<path d="M140.062 43.4699C139.548 43.4639 139.049 43.6362 138.648 43.9575C138.248 44.2788 137.972 44.729 137.867 45.2311C137.762 45.7333 137.835 46.2561 138.074 46.7104C138.313 47.1646 138.702 47.5219 139.175 47.7212C139.648 47.9205 140.176 47.9493 140.669 47.8029C141.161 47.6565 141.587 47.3438 141.874 46.9184C142.161 46.4929 142.291 45.9811 142.242 45.4706C142.192 44.96 141.967 44.4823 141.604 44.1193C141.404 43.9126 141.165 43.7485 140.9 43.6368C140.635 43.5252 140.35 43.4684 140.062 43.4699Z" fill="#EAEAF3"/>
<path d="M131.25 46.9275C130.667 46.9275 130.103 47.1294 129.652 47.4986C129.202 47.8678 128.893 48.3816 128.78 48.9524C128.666 49.5232 128.754 50.1157 129.029 50.629C129.304 51.1422 129.748 51.5444 130.287 51.7671C130.825 51.9898 131.424 52.0191 131.982 51.8502C132.54 51.6812 133.021 51.3244 133.345 50.8404C133.669 50.3565 133.814 49.7755 133.757 49.1963C133.7 48.6171 133.444 48.0757 133.032 47.6642C132.8 47.4268 132.523 47.2391 132.217 47.1124C131.911 46.9857 131.582 46.9228 131.25 46.9275Z" fill="#EAEAF3"/>
<path d="M131.251 20.5299C130.383 20.5345 129.543 20.8392 128.875 21.3922C128.207 21.9452 127.751 22.7123 127.585 23.563C127.419 24.4138 127.553 25.2957 127.965 26.0587C128.377 26.8218 129.04 27.4189 129.843 27.7485C130.646 28.078 131.538 28.1198 132.368 27.8666C133.198 27.6134 133.915 27.0808 134.396 26.3595C134.877 25.6383 135.094 24.7728 135.008 23.9102C134.922 23.0477 134.54 22.2414 133.927 21.6285C133.579 21.2729 133.163 20.992 132.702 20.8031C132.242 20.6142 131.748 20.5212 131.251 20.5299Z" fill="#EAEAF3"/>
</g>
<defs>
<linearGradient id="paint0_linear" x1="169.416" y1="209.677" x2="169.416" y2="176.046" gradientUnits="userSpaceOnUse">
<stop stop-color="#808080" stop-opacity="0.25"/>
<stop offset="0.54" stop-color="#808080" stop-opacity="0.12"/>
<stop offset="1" stop-color="#808080" stop-opacity="0.1"/>
</linearGradient>
<linearGradient id="paint1_linear" x1="42459.2" y1="140751" x2="42459.2" y2="34162.3" gradientUnits="userSpaceOnUse">
<stop stop-color="#808080" stop-opacity="0.25"/>
<stop offset="0.54" stop-color="#808080" stop-opacity="0.12"/>
<stop offset="1" stop-color="#808080" stop-opacity="0.1"/>
</linearGradient>
<linearGradient id="paint2_linear" x1="22528" y1="8021.9" x2="31544.8" y2="8021.9" gradientUnits="userSpaceOnUse">
<stop stop-color="#808080" stop-opacity="0.25"/>
<stop offset="0.54" stop-color="#808080" stop-opacity="0.12"/>
<stop offset="1" stop-color="#808080" stop-opacity="0.1"/>
</linearGradient>
<clipPath id="clip0">
<rect width="282" height="217" fill="white"/>
</clipPath>
</defs>
</svg>
