<svg width="31" height="31" viewBox="0 0 31 31" fill="none" xmlns="http://www.w3.org/2000/svg">
<g clip-path="url(#clip0)">
<path d="M30.5058 23.9389L18.6568 3.41584C17.998 2.27465 16.8178 1.59326 15.5 1.59326C14.1822 1.59326 13.002 2.27465 12.3431 3.41584L0.494198 23.9388C-0.164733 25.0801 -0.164733 26.4428 0.494198 27.584C1.15313 28.7253 2.33318 29.4066 3.65105 29.4066H27.3489C28.6667 29.4066 29.8468 28.7252 30.5058 27.5841C31.1648 26.4428 31.1648 25.0801 30.5058 23.9389ZM28.933 26.676C28.6023 27.2487 28.0102 27.5905 27.3489 27.5905H3.65105C2.98975 27.5905 2.39761 27.2487 2.06702 26.676C1.73644 26.1034 1.73644 25.4197 2.06702 24.847L13.9161 4.32398C14.2467 3.75133 14.8388 3.40948 15.5 3.40948C16.1612 3.40948 16.7534 3.75133 17.084 4.32398L28.933 24.847C29.2635 25.4197 29.2635 26.1034 28.933 26.676Z" fill="#FFB800"/>
<path d="M16.408 10.6567H14.5918V19.7377H16.408V10.6567Z" fill="#FFB800"/>
<path d="M15.4999 21.5542C14.8322 21.5542 14.2891 22.0974 14.2891 22.765C14.2891 23.4327 14.8322 23.9758 15.4999 23.9758C16.1675 23.9758 16.7107 23.4327 16.7107 22.765C16.7107 22.0974 16.1675 21.5542 15.4999 21.5542Z" fill="#FFB800"/>
</g>
<defs>
<clipPath id="clip0">
<rect width="31" height="31" fill="white"/>
</clipPath>
</defs>
</svg>
