<svg width="29" height="29" viewBox="0 0 29 29" fill="none" xmlns="http://www.w3.org/2000/svg">
<path d="M21.0718 9.33606L12.7594 17.6485L8.95895 13.8481C8.51077 13.4 7.78425 13.4 7.33607 13.8481C6.88798 14.2962 6.88798 15.0228 7.33607 15.471L11.948 20.0828C12.172 20.3068 12.4657 20.4189 12.7594 20.4189C13.0531 20.4189 13.3468 20.3068 13.5708 20.0828L22.6947 10.959C23.1427 10.5109 23.1427 9.78433 22.6947 9.33615C22.2465 8.88797 21.5199 8.88797 21.0718 9.33606Z" fill="#FA7575"/>
<circle cx="14.5" cy="14.5" r="13.5" stroke="#FA7575" stroke-width="2" stroke-linecap="round" stroke-dasharray="3 5"/>
<path d="M14.5 28C21.9558 28 28 21.9558 28 14.5C28 7.04416 21.9558 1 14.5 1" stroke="#FA7575" stroke-width="2"/>
</svg>
