<svg width="28" height="28" viewBox="0 0 28 28" fill="none" xmlns="http://www.w3.org/2000/svg">
<path d="M14.0001 0C6.2804 0 0 6.28031 0 13.9999C0 21.7195 6.2804 27.9998 14.0001 27.9998C21.7197 27.9998 28 21.7195 28 13.9999C28 6.28031 21.7197 0 14.0001 0ZM14.0001 25.7047C7.5459 25.7047 2.29507 20.4541 2.29507 13.9999C2.29507 7.54581 7.5459 2.29507 14.0001 2.29507C20.4542 2.29507 25.7049 7.54581 25.7049 13.9999C25.7049 20.4541 20.4542 25.7047 14.0001 25.7047Z" fill="#32BEA6"/>
<path d="M20.0566 8.62561L11.7443 16.9381L7.94382 13.1376C7.49564 12.6895 6.76911 12.6895 6.32093 13.1376C5.87284 13.5858 5.87284 14.3123 6.32093 14.7605L10.9328 19.3724C11.1569 19.5964 11.4506 19.7085 11.7443 19.7085C12.0379 19.7085 12.3316 19.5964 12.5557 19.3724L21.6795 10.2486C22.1276 9.80041 22.1276 9.07388 21.6795 8.6257C21.2313 8.17752 20.5047 8.17752 20.0566 8.62561Z" fill="#32BEA6"/>
</svg>
