<svg width="432" height="383" viewBox="0 0 432 383" fill="none" xmlns="http://www.w3.org/2000/svg">
<g clip-path="url(#clip0)">
<path opacity="0.1" d="M193.535 148.179C176.651 142.711 158.799 138.128 140.555 138.6C113.733 139.297 87.9444 151.803 75.2253 170.287C64.4741 185.951 63.0391 204.36 58.346 221.777C52.5637 243.235 41.5882 263.599 29.8741 283.514C23.5824 294.211 16.9447 305.132 15.8509 316.885C14.3504 333.203 24.2321 349.517 39.8119 360.452C55.3918 371.387 76.1228 377.214 96.952 378.576C108.035 379.296 119.618 378.739 129.486 374.745C139.924 370.536 147.557 362.833 158.037 358.67C167.751 354.816 179.072 354.32 189.968 354.886C204.08 355.602 218.057 357.996 231.598 362.023C246.786 366.569 260.898 373.113 276.052 377.724C291.207 382.336 308.147 384.946 323.675 381.237C338.255 377.757 349.819 369.179 360.248 360.489C377.052 346.519 392.679 331.192 406.969 314.654C416.387 303.714 425.161 292.162 429.368 279.38C437.404 254.937 426.638 227.263 402.551 210.43C382.596 196.479 355.751 190.319 329.462 186.577C305.487 183.13 277.749 182.789 255.714 174.01C234.698 165.615 215.579 155.316 193.535 148.179Z" fill="#6C63FF"/>
<path opacity="0.1" d="M408.754 231.473C414.72 231.473 419.557 230.809 419.557 229.99C419.557 229.171 414.72 228.507 408.754 228.507C402.788 228.507 397.952 229.171 397.952 229.99C397.952 230.809 402.788 231.473 408.754 231.473Z" fill="#6C63FF"/>
<path opacity="0.1" d="M367.372 235.673C373.338 235.673 378.174 235.009 378.174 234.19C378.174 233.371 373.338 232.707 367.372 232.707C361.405 232.707 356.569 233.371 356.569 234.19C356.569 235.009 361.405 235.673 367.372 235.673Z" fill="#6C63FF"/>
<path opacity="0.1" d="M318.627 229.99C324.593 229.99 329.429 229.326 329.429 228.507C329.429 227.688 324.593 227.025 318.627 227.025C312.661 227.025 307.824 227.688 307.824 228.507C307.824 229.326 312.661 229.99 318.627 229.99Z" fill="#6C63FF"/>
<path opacity="0.1" d="M383.933 247.201C388.175 247.201 391.613 246.728 391.613 246.144C391.613 245.561 388.175 245.087 383.933 245.087C379.691 245.087 376.253 245.561 376.253 246.144C376.253 246.728 379.691 247.201 383.933 247.201Z" fill="#6C63FF"/>
<path opacity="0.1" d="M340.984 246.144C345.226 246.144 348.665 245.671 348.665 245.087C348.665 244.504 345.226 244.03 340.984 244.03C336.743 244.03 333.304 244.504 333.304 245.087C333.304 245.671 336.743 246.144 340.984 246.144Z" fill="#6C63FF"/>
<path d="M367.138 233.853C367.138 233.853 382.292 184.155 364.768 164.249C351.68 149.357 336.778 151.153 330.116 152.982C326.625 153.913 323.722 156.326 322.17 159.591C319.833 164.619 320.263 172.78 336.707 182.307C364.244 198.261 365.96 220.145 365.96 220.145L367.138 233.853Z" fill="#6C63FF"/>
<path d="M332.486 160.03C332.486 160.03 377.155 174.005 367.138 233.853" stroke="#565987" stroke-miterlimit="10"/>
<path d="M358.57 165.04C358.57 165.04 352.418 169.188 354.363 175.418" stroke="#565987" stroke-miterlimit="10"/>
<path d="M336.969 168.73C336.969 168.73 340.709 164.904 345.304 167.013" stroke="#565987" stroke-miterlimit="10"/>
<path d="M354.625 187.976C354.625 187.976 361.225 184.627 362.931 188.822" stroke="#565987" stroke-miterlimit="10"/>
<path d="M370.961 194.963C370.961 194.963 366.002 194.571 365.913 196.942" stroke="#565987" stroke-miterlimit="10"/>
<path d="M367.75 234.251C367.75 234.251 349.987 198.13 345.131 198.92C342.794 199.294 341.746 201.577 341.265 203.864C340.667 206.824 341.003 209.897 342.233 212.657C344.752 218.438 351.516 229.415 367.75 234.251Z" fill="#6C63FF"/>
<path d="M345.261 205.777C345.261 205.777 363.889 232.801 367.488 233.989" stroke="#565987" stroke-miterlimit="10"/>
<path d="M343.551 209.995H347.898" stroke="#565987" stroke-miterlimit="10"/>
<path d="M348.758 219.883L355.573 220.173" stroke="#565987" stroke-miterlimit="10"/>
<path d="M352.904 211.974L352.166 215.524" stroke="#565987" stroke-miterlimit="10"/>
<path d="M360.15 222.783L360.019 226.01" stroke="#565987" stroke-miterlimit="10"/>
<path d="M367.227 234.251C367.227 234.251 384.989 198.13 389.846 198.92C392.183 199.294 393.23 201.577 393.712 203.864C394.31 206.824 393.974 209.897 392.744 212.657C390.225 218.438 383.461 229.415 367.227 234.251Z" fill="#6C63FF"/>
<path d="M389.715 205.777C389.715 205.777 371.088 232.801 367.488 233.989" stroke="#565987" stroke-miterlimit="10"/>
<path d="M391.426 209.995H387.079" stroke="#565987" stroke-miterlimit="10"/>
<path d="M386.219 219.883L379.404 220.173" stroke="#565987" stroke-miterlimit="10"/>
<path d="M382.073 211.974L382.811 215.524" stroke="#565987" stroke-miterlimit="10"/>
<path d="M374.823 222.783L374.958 226.01" stroke="#565987" stroke-miterlimit="10"/>
<path d="M336.754 242.688C336.273 242.291 335.922 241.762 335.744 241.163C335.586 240.541 335.88 239.896 336.45 239.606C337.1 239.358 337.792 239.807 338.32 240.265C338.848 240.724 339.447 241.234 340.134 241.14C339.414 240.485 339.091 239.508 339.283 238.554C339.311 238.362 339.39 238.175 339.517 238.025C339.877 237.642 340.531 237.81 340.961 238.109C342.331 239.077 342.714 240.939 342.723 242.613C342.789 241.991 342.789 241.364 342.723 240.742C342.667 240.116 342.929 239.498 343.42 239.101C343.742 238.923 344.112 238.834 344.481 238.848C345.098 238.759 345.724 238.937 346.206 239.339C346.725 239.901 346.589 240.841 346.136 241.458C345.626 242.024 345.023 242.496 344.355 242.861C343.841 243.165 343.406 243.581 343.079 244.077C343.041 244.147 343.008 244.218 342.985 244.292H339.124C338.264 243.867 337.469 243.329 336.754 242.688Z" fill="#6C63FF"/>
<path d="M404.379 228.138C403.893 227.745 403.542 227.212 403.369 226.613C403.21 225.996 403.505 225.346 404.075 225.06C404.725 224.812 405.417 225.261 405.945 225.715C406.473 226.169 407.076 226.688 407.763 226.59C407.043 225.94 406.716 224.957 406.908 224.003C406.936 223.811 407.02 223.629 407.146 223.479C407.506 223.096 408.156 223.26 408.586 223.564C409.955 224.527 410.339 226.37 410.348 228.068C410.418 227.446 410.418 226.819 410.348 226.197C410.292 225.57 410.554 224.953 411.045 224.555C411.372 224.382 411.736 224.298 412.106 224.307C412.723 224.209 413.349 224.382 413.831 224.775C414.354 225.332 414.219 226.272 413.76 226.889C413.256 227.464 412.653 227.951 411.979 228.32C411.465 228.624 411.031 229.04 410.703 229.536C410.666 229.606 410.633 229.677 410.61 229.751H406.749C405.889 229.321 405.094 228.779 404.379 228.138Z" fill="#6C63FF"/>
<path d="M381.839 242.688C381.357 242.291 381.007 241.762 380.829 241.163C380.67 240.541 380.965 239.896 381.535 239.606C382.185 239.358 382.877 239.807 383.405 240.265C383.933 240.724 384.531 241.234 385.218 241.14C384.499 240.49 384.176 239.508 384.363 238.554C384.396 238.362 384.48 238.179 384.601 238.025C384.961 237.642 385.616 237.81 386.046 238.109C387.415 239.077 387.799 240.939 387.808 242.613C387.883 241.991 387.892 241.364 387.831 240.742C387.775 240.116 388.037 239.498 388.528 239.101C388.85 238.923 389.22 238.834 389.589 238.848C390.206 238.759 390.832 238.937 391.314 239.339C391.833 239.901 391.697 240.841 391.244 241.458C390.734 242.024 390.131 242.496 389.463 242.861C388.949 243.165 388.514 243.581 388.187 244.077C388.149 244.147 388.117 244.218 388.093 244.292H384.232C383.367 243.871 382.559 243.329 381.839 242.688Z" fill="#6C63FF"/>
<path d="M317.926 213.279C317.926 213.279 316.477 215.173 318.594 218.031C320.712 220.888 322.45 223.306 321.749 225.088C321.749 225.088 318.557 219.78 315.958 219.705C313.359 219.63 315.065 216.473 317.926 213.279Z" fill="#6C63FF"/>
<path opacity="0.1" d="M317.926 213.279C317.799 213.461 317.697 213.662 317.626 213.873C315.093 216.852 313.742 219.635 316.177 219.705C318.449 219.77 321.174 223.83 321.824 224.85C321.824 224.929 321.777 225.009 321.749 225.084C321.749 225.084 318.557 219.775 315.958 219.7C313.359 219.626 315.065 216.473 317.926 213.279Z" fill="black"/>
<path d="M315.233 215.692C315.233 216.361 315.308 216.899 315.401 216.899C315.495 216.899 315.565 216.361 315.565 215.692C315.565 215.023 315.472 215.341 315.383 215.341C315.294 215.341 315.233 215.028 315.233 215.692Z" fill="#FFD037"/>
<path d="M314.308 216.487C314.892 216.81 315.406 217.002 315.448 216.922C315.49 216.843 315.055 216.515 314.471 216.197C313.887 215.879 314.116 216.108 314.069 216.197C314.022 216.286 313.723 216.169 314.308 216.487Z" fill="#FFD037"/>
<path d="M325.568 213.279C325.568 213.279 327.017 215.173 324.9 218.031C322.782 220.888 321.043 223.306 321.749 225.088C321.749 225.088 324.937 219.78 327.536 219.705C330.135 219.63 328.429 216.473 325.568 213.279Z" fill="#6C63FF"/>
<path opacity="0.1" d="M325.568 213.279C325.695 213.461 325.797 213.662 325.868 213.873C328.401 216.852 329.752 219.635 327.317 219.705C325.045 219.77 322.32 223.83 321.67 224.85C321.693 224.929 321.717 225.009 321.749 225.084C321.749 225.084 324.937 219.775 327.536 219.7C330.135 219.626 328.429 216.473 325.568 213.279Z" fill="black"/>
<path d="M328.261 215.692C328.261 216.361 328.186 216.899 328.092 216.899C327.999 216.899 327.929 216.361 327.929 215.692C327.929 215.023 328.022 215.341 328.111 215.341C328.2 215.341 328.261 215.028 328.261 215.692Z" fill="#FFD037"/>
<path d="M329.186 216.487C328.602 216.81 328.088 217.002 328.046 216.922C328.004 216.843 328.438 216.515 329.023 216.197C329.607 215.879 329.378 216.108 329.425 216.197C329.471 216.286 329.77 216.169 329.186 216.487Z" fill="#FFD037"/>
<path d="M327.798 224.84C327.798 224.84 323.755 224.719 322.535 223.849C321.314 222.979 316.308 221.941 315.99 223.334C315.672 224.728 309.914 230.266 314.476 230.303C319.038 230.341 325.096 229.592 326.311 228.849C327.527 228.105 327.798 224.84 327.798 224.84Z" fill="#A8A8A8"/>
<path opacity="0.2" d="M314.41 229.817C318.977 229.854 325.026 229.106 326.246 228.362C327.181 227.801 327.541 225.771 327.648 224.836H327.779C327.779 224.836 327.527 228.11 326.307 228.844C325.087 229.578 319.043 230.336 314.471 230.299C313.153 230.299 312.7 229.831 312.723 229.125C312.924 229.55 313.429 229.812 314.41 229.817Z" fill="black"/>
<path opacity="0.1" d="M60.2953 38.4174C65.8793 38.4174 70.406 33.8881 70.406 28.3009C70.406 22.7137 65.8793 18.1844 60.2953 18.1844C54.7113 18.1844 50.1845 22.7137 50.1845 28.3009C50.1845 33.8881 54.7113 38.4174 60.2953 38.4174Z" fill="#6C63FF"/>
<path opacity="0.1" d="M245.06 14.4387C246.219 8.97334 242.731 3.6025 237.269 2.4426C231.807 1.2827 226.439 4.77298 225.28 10.2384C224.12 15.7037 227.609 21.0746 233.071 22.2345C238.533 23.3944 243.901 19.9041 245.06 14.4387Z" fill="#6C63FF"/>
<path opacity="0.1" d="M395.572 62.4154C401.156 62.4154 405.683 57.8861 405.683 52.2989C405.683 46.7117 401.156 42.1824 395.572 42.1824C389.988 42.1824 385.461 46.7117 385.461 52.2989C385.461 57.8861 389.988 62.4154 395.572 62.4154Z" fill="#6C63FF"/>
<path opacity="0.1" d="M16.9448 138.015C26.3031 138.015 33.8895 130.425 33.8895 121.061C33.8895 111.697 26.3031 104.107 16.9448 104.107C7.58642 104.107 0 111.697 0 121.061C0 130.425 7.58642 138.015 16.9448 138.015Z" fill="#6C63FF"/>
<path opacity="0.1" d="M33.1883 221.735C42.5467 221.735 50.1331 214.144 50.1331 204.781C50.1331 195.417 42.5467 187.826 33.1883 187.826C23.83 187.826 16.2436 195.417 16.2436 204.781C16.2436 214.144 23.83 221.735 33.1883 221.735Z" fill="#6C63FF"/>
<path opacity="0.1" d="M350.544 147.889C359.902 147.889 367.488 140.298 367.488 130.934C367.488 121.571 359.902 113.98 350.544 113.98C341.185 113.98 333.599 121.571 333.599 130.934C333.599 140.298 341.185 147.889 350.544 147.889Z" fill="#6C63FF"/>
<path d="M210.423 162.682C209.825 162.738 209.217 162.71 208.624 162.804C207.628 163 206.675 163.384 205.819 163.931C201.565 166.354 197.55 169.684 195.788 174.249C195.643 174.529 195.596 174.852 195.657 175.161C195.76 175.418 195.933 175.638 196.152 175.806L197.807 177.312C198.018 177.527 198.265 177.705 198.541 177.827C198.99 177.944 199.457 177.93 199.897 177.785C204.445 176.742 209.278 175.54 212.471 172.135C213.985 170.521 215.383 168.299 217.613 168.239C218.548 168.239 219.422 168.599 220.343 168.706C221.263 168.814 222.371 168.421 222.591 167.523C222.661 167.079 222.61 166.62 222.441 166.199L221.067 161.621C220.693 160.367 216.921 160.302 215.663 160.526C213.747 160.858 212.457 162.495 210.423 162.682Z" fill="#65617D"/>
<path d="M226.616 188.476C226.55 190.043 226.676 191.629 226.419 193.181C226.195 194.407 225.802 195.595 225.255 196.713C224.414 198.513 223.348 200.197 222.077 201.722C220.894 203.125 219.478 204.444 217.725 204.996C215.972 205.548 213.817 205.15 212.723 203.672C211.83 202.47 211.788 200.866 211.854 199.364C212.013 195.674 212.592 191.933 214.247 188.631C214.958 187.227 215.86 185.89 216.584 184.473C218.099 181.531 218.964 178.042 221.577 176.012C223.217 176.77 224.97 177.251 226.765 177.438C227.462 177.513 229.453 177.56 229.687 178.453C229.846 179.057 228.537 180.745 228.284 181.339C227.289 183.593 226.718 186.016 226.616 188.476Z" fill="#65617D"/>
<path d="M208.086 121.024C208.647 122.455 209.358 123.858 209.489 125.383C209.582 126.318 209.489 127.254 209.489 128.189C209.568 129.47 209.778 130.743 210.124 131.977L212.728 142.641C213.116 144.236 213.504 145.873 213.303 147.501C213.167 148.586 212.775 149.638 212.779 150.728C212.831 151.556 212.962 152.374 213.172 153.174C213.663 155.648 213.532 158.202 212.779 160.61C212.705 160.793 212.677 160.989 212.7 161.186C212.765 161.49 213.06 161.677 213.326 161.822C216.131 163.356 219.183 164.375 222.348 164.829C225.204 158.033 227.195 150.91 228.284 143.619C228.948 139.203 229.271 134.732 230.121 130.35C230.14 130.097 230.248 129.859 230.425 129.676C230.743 129.41 231.225 129.578 231.599 129.756C236.376 132.052 240.971 134.713 245.346 137.707C248.459 133.67 249.623 128.46 248.52 123.484C247.968 121.365 247.188 119.312 246.183 117.366C245.112 115 243.78 112.759 242.209 110.692C238.741 106.342 233.655 103.564 228.42 101.679C225.237 100.529 221.96 99.6776 218.688 98.8076C216.855 98.3165 213.784 96.717 212.003 97.9611C210.134 99.2566 208.89 102.47 208.124 104.509C207.179 107.039 206.661 109.71 206.6 112.409C206.525 115.35 207.03 118.278 208.086 121.024Z" fill="#3F3D56"/>
<path d="M245.664 133.881C244.687 134.947 245.51 136.65 245.323 138.09C245.201 138.74 244.967 139.367 244.635 139.938L240.162 148.726C239.414 150.045 238.853 151.462 238.498 152.935C237.886 156.106 239.143 159.67 237.535 162.472C237.016 163.374 236.212 164.151 235.997 165.17C235.838 165.914 235.997 166.691 235.918 167.444C235.81 168.327 235.338 169.123 235.076 169.974C234.871 170.792 234.726 171.625 234.642 172.462C234.076 176.04 232.202 179.276 229.388 181.554C227.775 182.92 225.704 183.626 223.591 183.528C221.506 183.35 219.436 181.933 219.01 179.884C218.865 179.188 218.893 178.411 218.459 177.845C217.842 177.036 216.542 177.003 215.949 176.176L218.248 172.387C218.964 171.213 219.693 169.988 219.81 168.617C219.95 166.938 219.141 165.264 219.431 163.604C219.679 162.177 220.702 160.989 221.011 159.577C221.394 157.823 220.628 156.05 220.212 154.301C219.193 149.993 220.333 145.503 221.469 141.205C222.979 135.518 224.526 129.742 227.583 124.714C233.683 128.002 239.293 131.159 245.664 133.881Z" fill="#3F3D56"/>
<path d="M245.72 44.7922C246.085 45.7838 245.888 46.8829 245.818 47.9352C245.655 50.2737 246.15 52.6123 246.038 54.9835C245.926 57.3548 245.196 59.6185 244.692 61.9243C243.257 68.5049 243.602 75.3615 242.303 81.9702C240.7 90.1551 236.6 97.7787 235.791 106.085C235.534 108.723 235.567 111.548 234.123 113.774C225.54 109.995 217.426 105.225 209.947 99.5653C211.592 87.3535 213.219 75.0809 212.999 62.7615C212.892 61.2742 212.994 59.7822 213.308 58.3276C213.696 57.1069 214.256 55.9423 214.972 54.876C216.781 51.9341 218.772 49.1092 220.759 46.2889C222.03 44.4835 223.404 42.5893 225.433 41.7428C227.462 40.8962 229.864 41.2751 232.075 41.6773C234.735 42.1637 237.395 42.6501 240.05 43.1365C241.709 43.4406 245.009 42.8606 245.72 44.7922Z" fill="#6C63FF"/>
<path d="M181.713 91.5863C180.624 90.4965 179.432 89.505 178.161 88.635C179.82 86.6145 179.493 83.6914 179.9 81.105C180.231 79.4259 180.741 77.7842 181.409 76.2081C181.578 75.7638 181.816 75.2727 182.279 75.1557C182.564 75.1183 182.849 75.1651 183.111 75.2867C184.513 75.7825 187.439 75.7544 188.528 76.6617C189.842 77.7655 188.641 80.076 188.145 81.4557C187.795 82.3818 182.41 92.2878 181.713 91.5863Z" fill="#BE6F72"/>
<path d="M185.785 178.93C186.49 180.072 186.949 181.344 187.135 182.672C187.248 184 186.762 185.455 185.63 186.156C184.499 186.858 182.877 186.624 181.531 186.203C175.758 184.323 171.056 180.072 168.606 174.511C168.181 173.528 167.811 172.485 167.059 171.728C166.498 171.237 165.881 170.82 165.212 170.488C163.375 169.45 161.604 168.084 160.753 166.148C159.902 164.212 160.286 161.625 162.048 160.475C163.156 159.834 164.479 159.666 165.713 160.007C166.933 160.353 168.097 160.863 169.181 161.518C170.995 162.505 173.21 163.356 174.79 164.67C176.193 165.825 177.45 167.387 178.647 168.748C180.016 170.315 181.302 171.952 182.494 173.659C182.877 174.16 186.107 178.477 185.785 178.93Z" fill="#65617D"/>
<path d="M151.521 169.113C151.362 171.466 150.946 173.795 150.282 176.059C149.904 177.331 149.404 178.654 148.352 179.464C147.464 180.039 146.454 180.408 145.402 180.544C145.038 180.642 144.654 180.666 144.276 180.614C143.631 180.478 143.173 179.922 142.775 179.393C141.214 177.326 139.695 175.142 139.036 172.635C138.101 169.001 139.036 165.105 140.658 161.709C141.242 160.339 142.093 159.1 143.159 158.066C144.477 156.981 146.061 156.27 147.749 156.003C149.474 155.657 151.591 154.918 151.717 157.018C151.9 161.05 151.834 165.091 151.521 169.113Z" fill="#65617D"/>
<path d="M177.385 81.2032C180.61 82.8729 184.191 84.9963 184.864 88.5649C185.28 90.7444 184.48 92.9753 184.611 95.1923C184.728 97.1426 185.546 99.0274 185.443 100.973C185.336 101.894 185.177 102.807 184.976 103.709C184.7 105.435 184.864 107.194 184.794 108.938C184.639 112.867 183.326 116.646 182.69 120.523C182.241 123.292 182.134 126.108 182.377 128.9C182.531 130.705 182.844 132.501 182.844 134.316C182.844 135.621 182.737 136.926 182.522 138.217C181.895 142.267 180.633 146.191 178.782 149.848C176.534 154.278 176.852 159.993 177.09 164.955C177.193 165.638 177.109 166.34 176.838 166.976C176.249 168.047 174.781 168.201 173.566 168.098C169.06 167.687 164.881 165.568 161.88 162.177C161.44 161.752 161.146 161.2 161.029 160.601C160.926 159.6 161.73 158.777 162.31 157.949C164.282 155.143 163.782 151.34 164.016 147.893C164.184 145.386 164.787 142.926 165.787 140.621C166.367 139.288 167.092 137.973 167.222 136.523C167.344 135.172 166.933 133.834 166.526 132.543L165.124 128.091C162.95 121.173 160.762 114.214 157.472 107.755C155.312 109.163 153.77 111.333 153.148 113.835C151.923 118.241 153.667 123.161 151.998 127.399C151.722 127.988 151.493 128.596 151.311 129.218C151.213 129.756 151.175 130.303 151.199 130.85C151.241 135.41 151.521 139.961 152.031 144.493C152.054 145.181 152.25 145.85 152.592 146.443C152.867 146.841 153.269 147.136 153.564 147.515C154.382 148.576 154.228 150.064 154.031 151.387L153.096 157.645C153.078 157.963 152.975 158.267 152.793 158.529C152.573 158.744 152.297 158.894 151.998 158.959C149.03 159.881 145.898 160.171 142.808 159.801C141.896 159.694 141.069 159.081 140.307 158.566C140.228 157.631 141.392 157.009 141.434 156.078C141.387 155.526 141.135 155.012 140.719 154.647C138.98 152.683 136.904 150.597 136.923 147.973C136.923 147.285 137.087 146.598 137.063 145.91C137.002 144.147 135.787 142.636 135.362 140.939C134.838 138.839 135.535 136.659 135.801 134.512C136.166 131.622 135.736 128.694 135.334 125.808L133.768 115.219C133.585 113.578 133.258 111.95 132.795 110.365C132.206 108.803 131.515 107.282 130.725 105.809C129.229 102.769 127.999 99.6074 126.775 96.4551C126.387 95.5992 126.139 94.6825 126.05 93.747C125.98 92.1428 126.807 90.6274 127.836 89.3927C129.762 87.0963 132.389 85.5014 135.315 84.8559C135.806 84.7203 136.315 84.6969 136.815 84.7951C137.236 84.9355 137.629 85.1412 137.979 85.4078C145.304 90.2018 154.452 91.2869 162.693 88.3404C163.16 88.6958 164.025 88.5415 164.563 88.2889C166.063 87.6014 167.288 86.4555 168.606 85.4827C171.06 83.6212 174.37 81.8533 177.385 81.2032Z" fill="#3F3D56"/>
<path d="M80.4981 201.315C80.7459 202.03 81.1198 202.699 81.6013 203.284C83.2934 205.491 85.654 207.255 86.7431 209.832C86.9722 210.384 87.1405 210.964 87.3508 211.525C87.9912 213.218 89.0336 214.733 90.3892 215.931C91.4222 216.791 92.5488 217.535 93.7407 218.152C95.8068 219.279 98.0412 220.299 100.388 220.238C100.86 220.229 101.327 220.173 101.79 220.07C102.519 219.92 103.225 219.658 103.88 219.303C105.389 218.47 106.684 216.843 106.385 215.145C106.324 214.822 106.221 214.509 106.081 214.209C105.833 213.737 105.548 213.283 105.226 212.858C104.436 211.763 103.622 210.641 102.468 209.939C101.168 209.144 99.5323 208.948 98.3637 207.966C97.901 207.549 97.5036 207.068 97.1811 206.534C96.12 204.907 95.3347 203.115 94.8439 201.235C94.4886 199.832 94.2502 198.293 93.2265 197.264C92.2028 196.236 90.7959 196.002 89.4309 195.768C88.9682 195.674 88.5007 195.628 88.0286 195.632C87.3602 195.656 86.6683 195.847 86.042 195.534C85.4156 195.221 85.2053 194.776 84.448 194.837C83.845 194.917 83.2794 195.164 82.8073 195.553C81.031 196.867 79.8531 199.205 80.4981 201.315Z" fill="#3F3D56"/>
<path d="M97.1062 203.443C97.4101 205.028 97.8775 206.717 99.1022 207.75C99.8828 208.424 100.972 208.845 101.36 209.794C101.748 210.744 101.248 211.936 100.603 212.806C99.78 213.905 98.7563 214.846 97.5924 215.571C96.6014 216.183 95.4188 216.651 94.2829 216.38C93.348 216.16 92.6094 215.486 91.913 214.836C90.3143 213.354 88.6783 211.815 87.7808 209.827C86.8459 207.732 86.7991 205.304 85.7801 203.242C85.1865 202.04 84.2703 200.987 83.9104 199.697C83.7468 199.229 83.7468 198.724 83.9104 198.256C84.2656 197.573 84.9761 197.152 85.7427 197.166C86.4953 197.19 87.2385 197.349 87.935 197.634C90.0432 198.387 92.2074 198.99 94.3997 199.444C95.2739 199.608 95.8021 199.603 96.2695 200.45C96.6996 201.399 96.9847 202.409 97.1062 203.443Z" fill="#FBBEBE"/>
<path d="M102.529 216.847C102.183 217.376 101.935 217.97 101.804 218.587C101.692 219.069 101.678 219.569 101.753 220.056C102.482 219.906 103.188 219.644 103.842 219.289C105.352 218.456 106.647 216.829 106.348 215.131C106.287 214.808 106.184 214.495 106.044 214.195C105.59 214.093 105.118 214.242 104.8 214.584C103.931 215.215 103.164 215.982 102.529 216.847Z" fill="#FBBEBE"/>
<path d="M85.7755 181.311C85.5698 181.751 85.5137 182.242 85.6025 182.714C85.8175 183.65 86.7758 184.187 87.6406 184.613L95.8629 188.635C96.4331 188.897 96.9894 189.197 97.5269 189.519C98.9293 190.38 100.032 191.596 101.229 192.709C102.426 193.822 103.758 194.865 105.343 195.258C106.923 195.604 108.577 195.389 110.017 194.645C110.793 194.257 111.513 193.771 112.158 193.191C112.714 192.7 113.233 192.162 113.7 191.587C114.102 191.161 114.392 190.642 114.537 190.076C114.691 189.22 114.266 188.378 113.771 187.672C113.485 187.265 113.172 186.877 112.836 186.512C109.718 183.065 104.609 181.278 100.215 180.577C98.4665 180.296 96.8071 179.641 95.1243 179.108C93.4415 178.575 91.6606 178.173 89.9123 178.421C88.1641 178.668 86.4439 179.674 85.7755 181.311Z" fill="#3F3D56"/>
<path opacity="0.1" d="M85.7755 181.311C85.5698 181.751 85.5137 182.242 85.6025 182.714C85.8175 183.65 86.7758 184.187 87.6406 184.613L95.8629 188.635C96.4331 188.897 96.9894 189.197 97.5269 189.519C98.9293 190.38 100.032 191.596 101.229 192.709C102.426 193.822 103.758 194.865 105.343 195.258C106.923 195.604 108.577 195.389 110.017 194.645C110.793 194.257 111.513 193.771 112.158 193.191C112.714 192.7 113.233 192.162 113.7 191.587C114.102 191.161 114.392 190.642 114.537 190.076C114.691 189.22 114.266 188.378 113.771 187.672C113.485 187.265 113.172 186.877 112.836 186.512C109.718 183.065 104.609 181.278 100.215 180.577C98.4665 180.296 96.8071 179.641 95.1243 179.108C93.4415 178.575 91.6606 178.173 89.9123 178.421C88.1641 178.668 86.4439 179.674 85.7755 181.311Z" fill="black"/>
<path d="M106.352 183.879C106.983 184.59 107.507 185.394 107.895 186.259C108.245 186.825 108.372 187.508 108.245 188.163C108.063 188.603 107.769 188.991 107.39 189.285L106.572 190.043C106.324 190.3 106.039 190.515 105.721 190.679C105.272 190.848 104.796 190.918 104.319 190.89C103.22 190.89 102.038 190.89 101.145 190.23C99.925 189.351 99.7053 187.532 100.262 186.133C100.818 184.735 101.982 183.678 103.155 182.733C104.109 181.961 105.684 183.172 106.352 183.879Z" fill="#FBBEBE"/>
<path d="M111.345 188.715C111.195 189.491 111.265 190.296 111.555 191.03C111.761 191.732 111.962 192.433 112.163 193.149C112.163 193.149 112.163 193.149 112.163 193.177C112.719 192.686 113.238 192.148 113.705 191.573C114.107 191.147 114.397 190.628 114.542 190.062C114.696 189.206 114.271 188.364 113.775 187.658C113.49 187.251 113.177 186.863 112.84 186.498C112.621 186.783 112.429 187.064 112.27 187.246C111.859 187.667 111.546 188.168 111.345 188.715Z" fill="#FBBEBE"/>
<path d="M89.8656 153.857C88.898 157.926 89.3094 162.182 89.8236 166.335C90.2162 169.497 90.6556 172.771 89.7207 175.815C89.3748 176.952 88.8279 178.107 89.0383 179.281C89.4356 181.493 92.1 182.345 94.3063 182.761C94.942 182.925 95.6058 182.962 96.2556 182.878C96.91 182.7 97.513 182.382 98.0318 181.942C101.168 179.66 103.548 176.494 104.871 172.846C105.707 170.404 105.974 167.808 106.231 165.241C106.661 160.919 107.096 156.546 106.464 152.252C106.278 150.99 105.997 149.741 105.88 148.469C105.735 146.256 105.857 144.035 106.245 141.851C107.049 136.444 108.269 131.103 109.891 125.883C105.441 126.472 100.916 125.659 96.952 123.545C97.7187 123.956 96.8399 130.518 96.7464 131.44C96.4612 134.185 95.9657 136.907 95.2646 139.578C93.9604 144.568 91.0483 148.899 89.8656 153.857Z" fill="#3F3D56"/>
<path opacity="0.1" d="M89.8656 153.857C88.898 157.926 89.3094 162.182 89.8236 166.335C90.2162 169.497 90.6556 172.771 89.7207 175.815C89.3748 176.952 88.8279 178.107 89.0383 179.281C89.4356 181.493 92.1 182.345 94.3063 182.761C94.942 182.925 95.6058 182.962 96.2556 182.878C96.91 182.7 97.513 182.382 98.0318 181.942C101.168 179.66 103.548 176.494 104.871 172.846C105.707 170.404 105.974 167.808 106.231 165.241C106.661 160.919 107.096 156.546 106.464 152.252C106.278 150.99 105.997 149.741 105.88 148.469C105.735 146.256 105.857 144.035 106.245 141.851C107.049 136.444 108.269 131.103 109.891 125.883C105.441 126.472 100.916 125.659 96.952 123.545C97.7187 123.956 96.8399 130.518 96.7464 131.44C96.4612 134.185 95.9657 136.907 95.2646 139.578C93.9604 144.568 91.0483 148.899 89.8656 153.857Z" fill="black"/>
<path d="M114.135 130.013C116.005 135.434 115.594 141.355 114.785 147.033C113.976 152.711 112.784 158.389 113.135 164.109C113.27 166.354 113.635 168.66 112.981 170.806C112.616 171.854 112.135 172.855 111.546 173.795L96.6295 199.603C95.8582 200.964 94.4512 201.843 92.89 201.942C91.296 202.054 89.73 201.53 88.2436 200.945C87.2573 200.618 86.3364 200.108 85.5371 199.444C84.7331 198.771 84.3031 197.751 84.3965 196.703C85.065 192.223 86.07 187.634 86.8132 183.14C87.318 180.09 88.4212 177.172 90.0573 174.548C91.2118 172.677 92.6329 170.998 93.6285 169.052C96.4893 163.477 95.4983 156.677 93.292 150.812C91.0856 144.947 87.7995 139.503 86.0466 133.507C85.5277 131.837 85.2286 130.107 85.1631 128.362C85.1211 124.719 86.5234 121.211 89.071 118.606C89.4402 118.189 89.903 117.867 90.4219 117.67C91.0295 117.53 91.6606 117.539 92.2636 117.703C100.57 119.317 111.391 122.006 114.135 130.013Z" fill="#3F3D56"/>
<path d="M248.211 49.0858C248.482 51.1343 247.744 53.2063 246.692 54.9789C242.714 61.6203 233.543 64.5575 226.452 61.4659C223.53 60.1891 221.058 58.0844 218.636 56.0078C217.823 55.3063 216.977 54.572 216.566 53.5804C215.841 51.8265 216.715 49.7359 218.141 48.4824C219.567 47.229 221.413 46.6116 223.25 46.055C229.313 44.1655 246.767 38.2069 248.211 49.0858Z" fill="#FBBEBE"/>
<path d="M244.663 42.5847C250.184 47.0279 258.219 51.2606 264.474 54.5533C266.601 55.6758 268.961 56.9386 269.728 59.2303C270.139 60.4557 270.003 61.7887 269.868 63.0796C269.606 65.5631 269.335 68.084 268.377 70.3898C267.25 73.0885 265.259 75.3148 263.66 77.7655C260.856 82.0591 259.21 87.1197 255.747 90.9128C258.084 98.6814 260.641 106.441 261.473 114.504C261.519 114.724 261.496 114.958 261.403 115.163C261.309 115.299 261.183 115.411 261.038 115.495L255.223 119.312C254.587 119.681 254.022 120.158 253.545 120.715C252.516 122.053 252.652 123.933 252.016 125.49C251.311 127.024 250.011 128.208 248.417 128.764C246.828 129.311 245.136 129.489 243.467 129.288C241.345 129.152 239.297 128.432 237.558 127.207C236.077 126.084 235.02 124.508 234.001 122.955C233.244 121.898 232.618 120.752 232.131 119.546C231.51 117.825 231.472 115.949 231.496 114.116C231.51 110.627 231.846 107.147 232.491 103.719C232.762 102.358 233.099 101.015 233.314 99.6448C233.744 96.8854 233.66 94.0698 233.978 91.2963C234.413 88.1767 235.109 85.0992 236.058 82.0965C236.577 80.235 236.983 78.3455 237.273 76.4372C237.82 73.0791 238.909 69.8379 239.998 66.6154L241.868 61.0918C242.266 59.8992 242.668 58.7112 243.14 57.5466C244.018 55.3718 245.15 53.2531 245.449 50.9332C245.781 48.4029 243.051 45.4003 243.972 43.0243C244.046 42.7624 244.453 42.4163 244.663 42.5847Z" fill="#3F3D56"/>
<path d="M268.232 57.9254C269.527 58.51 270.242 59.9038 270.705 61.2508C271.747 64.2862 271.999 67.5368 271.434 70.6985C271.252 71.4936 271.125 72.298 271.06 73.1118C271.069 74.0519 271.163 74.992 271.336 75.9181C271.803 79.496 271.336 83.1301 271.49 86.7408C271.649 90.8005 272.532 95.0894 270.831 98.7796C269.7 101.23 267.559 103.054 265.446 104.71C257.579 110.846 248.899 115.856 239.657 119.602C241.251 117.684 241.279 114.798 240.218 112.539C239.157 110.28 237.184 108.583 235.076 107.264C237.759 106.665 240.358 105.739 242.812 104.5C247.711 102.011 251.909 98.368 256.055 94.762C256.667 94.3223 257.144 93.719 257.429 93.0221C257.85 91.619 256.691 90.286 255.887 89.0559C253.451 85.3143 254.017 80.4268 255.036 76.0958C256.172 71.3486 257.841 66.6201 260.884 62.8036C262.782 60.4183 265.259 58.5849 268.232 57.9254Z" fill="#3F3D56"/>
<path d="M239.246 119.719C238.825 120.406 238.278 121.005 237.638 121.487C236.236 122.422 234.31 122.067 232.744 121.403C231.29 120.785 229.944 119.929 228.77 118.872C228.266 118.334 227.667 117.89 227.008 117.563C225.784 117.095 224.073 117.446 223.386 116.319C223.306 116.202 223.264 116.061 223.273 115.916C223.315 115.509 223.848 115.397 224.26 115.374C226.167 115.247 228.023 114.677 229.668 113.704C229.14 113.325 228.691 112.848 228.34 112.301C228.196 112.109 228.116 111.875 228.116 111.637C228.172 111.375 228.317 111.141 228.523 110.973C231.594 108.073 236.119 107.315 239.966 109.064C240.335 109.214 240.653 109.453 240.901 109.766C241.074 110.051 241.19 110.369 241.242 110.701C241.546 112.011 242.644 113.975 242.247 115.299C241.807 116.819 240.148 118.433 239.246 119.719Z" fill="#FBBEBE"/>
<path d="M207.371 113.821C213.186 107.1 215.785 98.2557 218.197 89.7014L219.922 83.6212L224.082 68.9773C224.694 66.8165 225.307 64.6557 225.713 62.4528C226.41 58.6504 226.475 54.7637 226.433 50.9005C226.373 49.3009 226.008 47.7248 225.354 46.2608C224.947 45.2506 224.751 44.1749 224.419 43.1319C223.998 41.6773 223.367 40.2929 222.544 39.0208C222.315 38.6419 222.03 38.3005 221.698 38.0105C221.123 37.6176 220.473 37.3557 219.786 37.2341C218.3 36.7898 216.762 36.5559 215.21 36.5372C213.658 36.5934 212.059 37.1312 211.059 38.3098C210.297 39.2125 209.947 40.3818 209.344 41.3967C209.063 41.813 208.811 42.2432 208.582 42.6922C208.325 43.3704 208.184 44.0907 208.161 44.8156C207.918 47.7622 207.712 50.7134 207.539 53.6646C207.46 55.007 207.39 56.3586 207.441 57.7056C207.483 58.7533 207.595 59.7963 207.708 60.8392L208.815 71.054C209.073 73.4533 208.89 75.6983 209.105 78.1023C209.629 83.9065 208.381 89.7108 207.1 95.4074C206.488 98.1154 205.857 100.861 204.548 103.312C203.393 105.482 201.664 107.685 202.122 110.103C202.281 110.945 202.706 111.73 202.771 112.582C202.739 113.11 202.79 113.639 202.926 114.148C203.318 114.859 204.122 115.238 204.922 115.084C205.847 114.925 206.703 114.48 207.371 113.821Z" fill="#3F3D56"/>
<path d="M208.082 86.9232C208.259 88.2655 208.124 89.6265 208.189 90.9782C208.334 92.7181 208.647 94.4439 209.124 96.123C209.591 97.9938 210.19 100.089 211.84 101.127C212.256 101.343 212.648 101.59 213.022 101.871C213.401 102.17 213.551 102.666 213.406 103.125L212.12 102.909C212.69 103.349 212.803 104.168 212.363 104.738C211.924 105.309 211.106 105.421 210.536 104.981C210.456 104.921 210.386 104.855 210.325 104.78C210.372 105.201 210.335 105.627 210.208 106.034C210.073 106.441 209.704 106.721 209.274 106.735C209.03 106.698 208.801 106.6 208.605 106.455L205.249 104.373C204.244 103.831 203.407 103.022 202.832 102.035L201.364 99.8225C201.042 99.3969 200.785 98.9245 200.602 98.4194C200.056 96.5486 201.584 94.472 200.789 92.7087C200.551 92.2738 200.271 91.8622 199.953 91.4833C198.256 89.1448 198.363 85.9644 198.55 83.0646C198.611 82.0871 198.789 80.9272 199.672 80.5016C200.373 80.1602 201.215 80.4642 201.865 80.8898C202.514 81.3154 203.089 81.8767 203.828 82.1292C204.295 82.2882 204.809 82.3069 205.277 82.4753C205.931 82.7045 206.539 83.5978 206.978 84.1263C207.6 84.9401 207.983 85.9083 208.082 86.9232Z" fill="#FBBEBE"/>
<path d="M167.12 44.8905C166.722 45.8025 166.166 46.635 165.474 47.3506C164.768 48.0755 163.763 48.4216 162.763 48.286C161.725 48.0802 160.963 47.2243 160.276 46.4152C158.481 44.3058 156.663 42.1684 155.457 39.6709C153.615 35.8684 153.321 31.5281 153.054 27.3141C152.989 26.229 152.933 25.0784 153.452 24.129C154.111 22.9176 155.508 22.347 156.799 21.8653L163.927 19.1994C164.362 18.9936 164.848 18.9047 165.329 18.9421C166.447 19.1292 166.858 20.4762 167.162 21.566C167.704 23.5256 168.611 25.3637 169.826 26.9913C171.425 29.1241 175.01 31.9958 172.963 34.6571C170.49 37.8468 168.919 41.2891 167.12 44.8905Z" fill="#BE6F72"/>
<path d="M176.239 32.7207C179.362 35.6579 180.418 40.2321 180.269 44.5116C180.119 48.7911 178.932 52.9631 178.254 57.1911C177.576 61.4192 177.441 65.9326 179.278 69.8192C179.909 71.1522 180.769 72.3869 181.208 73.7947C181.578 75.1838 181.704 76.629 181.578 78.0649C181.568 79.5755 181.283 81.0722 180.727 82.48C179.731 84.6876 177.684 86.2216 175.725 87.6248C171.729 90.5152 167.653 93.4524 162.959 94.9631C159.781 95.9874 156.415 96.3241 153.087 96.5065C150.834 96.6842 148.567 96.6234 146.328 96.3147C142.411 95.66 138.811 93.7564 136.068 90.88C135.591 90.417 135.198 89.8744 134.904 89.2758C134.618 88.4994 134.478 87.6715 134.497 86.8437C134.385 83.7709 134.403 80.7027 134.553 77.6299C134.637 74.702 135.044 71.7929 135.754 68.9539C136.647 65.68 138.194 62.6118 139.368 59.4221C143.453 48.3328 143.042 35.714 148.716 25.359C149.941 23.1234 151.989 20.7708 154.513 21.1263C154.999 21.1544 155.457 21.3648 155.794 21.7156C156.083 22.1412 156.247 22.6417 156.261 23.1561C156.864 28.1887 157.719 33.3521 160.089 37.8936C161.024 39.6755 162.427 42.3882 164.581 42.8653C166.736 43.3423 168.008 41.2844 169.162 39.8252C171.191 37.1499 173.57 34.7599 176.239 32.7207Z" fill="#E3E8F4"/>
<path d="M191.184 25.1486C191.819 25.4947 192.413 25.9109 192.955 26.3927C194.357 27.721 194.872 29.7555 194.862 31.6824C194.853 33.6094 194.395 35.5083 194.114 37.4165C193.362 42.5613 194.002 47.8277 194.301 53.0379C194.395 53.8798 194.343 54.731 194.152 55.5542C193.923 56.3399 193.451 57.0321 193.147 57.7945C192.254 60.0488 192.927 62.6212 192.404 64.9878C191.843 67.5087 189.921 69.8005 190.281 72.3588C190.426 73.3597 190.908 74.2811 191.113 75.2727C191.319 76.2642 191.141 77.4615 190.286 77.9947C189.431 78.5279 188.187 78.1397 187.168 78.4343C186.752 78.5887 186.35 78.7664 185.962 78.9769C184.387 79.6878 182.508 79.4446 180.956 78.6682C179.437 77.8357 178.067 76.7506 176.913 75.4597C175.132 73.6357 173.407 71.6386 172.626 69.2112C171.486 65.694 172.5 61.8635 173.739 58.3744C174.977 54.8853 176.454 51.3588 176.235 47.6499C176.113 45.5733 175.459 43.5762 175.066 41.537C174.58 38.7121 174.407 35.8403 174.547 32.978C174.608 30.8827 174.748 28.7219 175.65 26.8276C176.959 24.2599 179.479 22.5341 182.344 22.2441C185.616 21.8887 188.421 23.5584 191.184 25.1486Z" fill="#3F3D56"/>
<path opacity="0.1" d="M182.344 70.3571C182.377 71.8537 182.643 73.3364 183.139 74.7488C183.976 72.8406 184.074 70.6985 184.186 68.6219C184.653 61.4706 186.238 54.7263 187.925 47.7996C186.696 48.735 186.004 51.0735 185.415 52.4767C183.078 58.1359 182.031 64.2441 182.344 70.3571Z" fill="black"/>
<path d="M150.834 20.5276C148.581 21.1216 146.627 22.4593 144.444 23.3339C142.177 24.2693 139.737 24.6668 137.358 25.2421C131.851 26.5798 126.321 29.0633 122.998 33.6608C120.548 37.0423 119.534 41.219 117.856 45.0495C116.454 48.2626 114.584 51.2746 113.551 54.6187C112.2 58.9824 112.354 63.6595 112.686 68.215C112.957 71.9566 113.369 75.7404 115.065 79.0564C115.954 80.7963 117.178 82.3537 118.066 84.0936C119.132 86.1842 119.693 88.49 120.581 90.6415C121.469 92.7929 122.773 94.9444 124.835 96.0669L128.247 94.0698C133.338 91.0905 138.428 88.1065 143.36 84.87C147.66 82.0638 151.998 78.8413 154.288 74.2297C156.317 70.156 156.518 65.3947 155.995 60.872C155.471 56.3493 154.274 51.9248 153.657 47.4161C152.872 41.7428 152.989 35.976 154.008 30.3401C154.475 27.7958 155.719 25.1673 155.976 22.6323C156.261 19.9243 152.783 20.0132 150.834 20.5276Z" fill="#3F3D56"/>
<path d="M129.738 94.8789C132.351 97.3531 136.11 98.0733 139.377 99.556C141.803 100.683 143.991 102.273 145.814 104.233C146.819 105.337 147.791 106.838 147.286 108.241C146.861 109.448 145.557 110.065 144.36 110.514C142.873 111.076 141.214 111.571 139.732 111.005C138.863 110.673 138.162 110.009 137.362 109.537C135.404 108.372 132.936 108.368 130.926 107.292C128.093 105.776 126.681 102.442 124.017 100.641C122.558 99.6589 120.544 98.8544 120.394 97.1005C120.389 96.4644 120.52 95.8377 120.787 95.2624C121.324 93.8312 122.241 88.9156 124.288 89.0466C126.518 89.1916 128.079 93.6956 129.738 94.8789Z" fill="#FBBEBE"/>
<path d="M116.047 72.9575C116.902 76.035 118.889 78.6588 120.95 81.1003C122.432 82.8542 124.059 84.7624 124.11 87.0589C124.157 89.229 122.708 91.2261 120.838 92.3346C118.968 93.443 116.767 93.7985 114.603 93.9388C112.873 94.1072 111.125 93.9856 109.433 93.5787C105.16 92.4188 102.197 88.6912 98.8358 85.8101C96.8398 84.103 94.5961 82.6157 93.0676 80.4782C91.539 78.3408 90.8939 75.2727 92.3991 73.1165C92.9413 72.4197 93.5724 71.7882 94.2689 71.2457C96.8211 69.0288 98.9994 66.419 100.715 63.5052C101.407 62.3312 102.07 61.0591 103.234 60.3528C104.903 59.3379 107.044 59.8009 108.933 60.2967C110.985 60.8346 116.767 61.8869 117.169 64.5061C117.332 65.5818 116 67.2562 115.799 68.4114C115.542 69.9268 115.626 71.4796 116.047 72.9575Z" fill="#FBBEBE"/>
<path d="M126.616 78.8226C127.228 79.931 127.733 81.1003 128.121 82.307C129.547 87.2646 126.999 92.372 125.784 97.3858C124.232 103.807 124.891 110.524 124.816 117.132C124.783 120.154 124.461 123.479 122.287 125.574C121.726 126.108 121.053 126.557 120.675 127.23C120.441 127.726 120.268 128.245 120.156 128.778C118.94 133.016 114.523 135.462 110.288 134.241C109.699 134.073 109.134 133.834 108.601 133.54C106.829 132.553 105.291 130.841 103.262 130.789C102.627 130.822 101.991 130.892 101.36 131C99.3406 131.201 97.3634 130.453 95.4702 129.718C95.0168 129.573 94.5961 129.349 94.2268 129.054C93.8856 128.741 93.6659 128.32 93.3527 127.983C92.1981 126.739 90.2255 126.954 88.5614 126.608C86.0279 126.042 84.046 124.059 83.4803 121.524C83.1438 119.915 83.4289 118.25 83.7094 116.627L84.9621 109.397C85.4857 106.745 85.8503 104.065 86.0513 101.366C86.2055 98.3165 85.9438 95.2624 85.2753 92.2878C84.7237 89.8557 83.901 87.4751 83.6019 84.9963C83.0784 80.5531 84.247 76.0771 86.874 72.4571C87.5237 71.5637 88.3745 70.6704 89.4776 70.5862C90.3704 70.5067 91.2072 70.9838 91.9831 71.4421C98.7236 75.4317 105.511 79.3417 112.345 83.1675C114.215 84.2199 116.126 85.2769 118.211 85.7961C118.838 85.9551 119.735 85.8896 119.824 85.2535C119.833 85.0103 119.772 84.7718 119.642 84.566C118.473 82.3163 116.781 80.3847 115.435 78.2426C114.088 76.1005 113.051 73.5655 113.448 71.0773C113.99 67.635 117.188 65.3573 119.801 68.056C122.731 71.1194 124.695 75.0575 126.616 78.8226Z" fill="#F86D70"/>
<path d="M105.684 122.474C111.167 122.824 116.772 123.198 121.848 125.303C123.479 125.977 125.209 126.847 126.924 126.43C127.78 126.168 128.574 125.743 129.262 125.177C131.374 123.624 133.37 121.922 135.235 120.079C135.049 119.055 133.66 118.914 132.622 118.924C130.094 118.938 127.597 118.339 125.349 117.174C124.611 116.73 123.825 116.365 123.012 116.085C120.792 115.472 118.529 116.641 116.299 117.212C112.999 118.054 109.522 117.563 106.151 117.067L97.0549 115.725C96.2088 115.603 95.2552 115.505 94.5821 116.029C94.1334 116.454 93.8249 117.006 93.6986 117.614C92.5861 121.356 93.119 121.669 96.8212 121.903L105.684 122.474Z" fill="#FBBEBE"/>
<path opacity="0.1" d="M229.892 57.5372C238.153 57.5372 244.85 50.8365 244.85 42.5706C244.85 34.3048 238.153 27.604 229.892 27.604C221.631 27.604 214.934 34.3048 214.934 42.5706C214.934 50.8365 221.631 57.5372 229.892 57.5372Z" fill="black"/>
<path d="M244.553 44.3175C245.876 36.1583 240.339 28.4705 232.184 27.1463C224.03 25.8221 216.346 31.363 215.023 39.5222C213.699 47.6814 219.237 55.3692 227.392 56.6934C235.546 58.0175 243.23 52.4767 244.553 44.3175Z" fill="#FBBEBE"/>
<path d="M242.41 22.9176C243.607 23.6566 244.86 24.4517 245.514 25.6958C245.865 26.5423 246.136 27.4169 246.314 28.3149C247.132 31.1212 249.31 33.5579 249.441 36.4811C249.586 39.6849 247.183 42.4677 244.463 44.1468C243.841 44.6052 243.093 44.8577 242.322 44.8671C241.532 44.8156 240.849 44.3198 240.125 44.0018C237.054 42.6361 233.618 44.3666 230.364 45.1617C226.985 45.9802 223.437 45.7697 220.174 44.5631C218.421 43.9083 216.72 42.9261 215.621 41.406C214.523 39.886 214.13 37.7579 215.065 36.1256C215.533 35.2931 216.309 34.5401 216.257 33.5907C216.229 33.0201 215.893 32.5056 215.79 31.9443C215.64 31.051 216.108 30.1811 216.584 29.4187C218.749 25.9343 221.483 22.8428 224.671 20.2657C225.606 19.4987 226.686 18.7503 227.91 18.6942C230.369 18.5866 232.482 20.4201 235.011 20.4294C237.881 20.4388 239.942 21.3929 242.41 22.9176Z" fill="#3F3D56"/>
<path opacity="0.1" d="M174.72 38.7588C183.24 38.7588 190.146 31.8486 190.146 23.3245C190.146 14.8004 183.24 7.8902 174.72 7.8902C166.201 7.8902 159.295 14.8004 159.295 23.3245C159.295 31.8486 166.201 38.7588 174.72 38.7588Z" fill="black"/>
<path d="M174.991 38.38C183.511 38.38 190.417 31.4698 190.417 22.9457C190.417 14.4215 183.511 7.51135 174.991 7.51135C166.472 7.51135 159.566 14.4215 159.566 22.9457C159.566 31.4698 166.472 38.38 174.991 38.38Z" fill="#BE6F72"/>
<path d="M183.232 31.6637C185.411 32.8844 188.098 32.7582 190.529 32.2016C191.908 31.9443 193.217 31.3925 194.362 30.5833C195.517 29.7555 196.227 28.4459 196.293 27.0288C196.293 25.4619 195.264 24.0495 195.138 22.4826C194.984 20.5089 196.269 18.6849 196.405 16.7018C196.54 14.7187 195.563 12.9321 194.61 11.2296C192.969 8.30647 191.263 5.34589 188.767 3.11026C186.271 0.874619 182.812 -0.551885 179.54 0.201122C177.932 0.57061 176.44 1.43587 174.8 1.60424C173.341 1.73988 171.902 1.30023 170.448 1.11315C168.994 0.926067 167.363 1.04299 166.32 2.04856C165.75 2.60981 165.385 3.40023 164.717 3.81181C164.264 4.02228 163.796 4.19533 163.315 4.33097C161.627 5.00914 160.856 6.91271 160.258 8.62451L156.247 20.1254C157.589 21.0608 159.206 21.4864 160.674 22.2067C162.141 22.927 163.567 24.0775 163.866 25.6864C164.095 26.9071 163.661 28.3103 164.371 29.3299C165.021 30.2653 166.344 30.4243 167.466 30.2653C168.587 30.1063 169.714 29.7181 170.836 29.8911C173.64 30.3167 174.683 32.0379 177.277 29.8911C179.871 27.7443 180.82 30.3074 183.232 31.6637Z" fill="#3F3D56"/>
<path opacity="0.1" d="M109.437 71.7836C117.182 71.7836 123.461 65.5016 123.461 57.7524C123.461 50.0032 117.182 43.7212 109.437 43.7212C101.693 43.7212 95.4141 50.0032 95.4141 57.7524C95.4141 65.5016 101.693 71.7836 109.437 71.7836Z" fill="black"/>
<path d="M109.98 71.0212C117.724 71.0212 124.003 64.7392 124.003 56.99C124.003 49.2408 117.724 42.9588 109.98 42.9588C102.235 42.9588 95.9564 49.2408 95.9564 56.99C95.9564 64.7392 102.235 71.0212 109.98 71.0212Z" fill="#FBBEBE"/>
<path d="M120.717 43.2722C117.379 40.7092 113.626 38.7354 109.624 37.4352C107.063 36.6027 104.277 36.0321 101.678 36.7991C98.1533 37.8047 93.4369 39.306 91.2539 42.2573C90.1788 43.7072 89.0897 45.1991 88.5708 46.9343C87.5331 50.4234 89.0102 54.1417 88.912 57.7804C88.7952 62.0225 86.5468 65.8951 84.0927 69.3562C81.6386 72.8172 81.1431 77.7749 79.6941 81.7691C79.1986 83.1395 79.0397 85.043 80.3158 85.7306C81.4376 86.3526 82.7932 85.5762 83.8309 84.8279L90.0713 80.3145C90.5574 79.917 91.1137 79.6176 91.7167 79.4352C93.0021 79.1359 94.2596 79.9404 95.3347 80.7027L108.423 89.9633C108.947 88.8923 108.97 87.6482 108.484 86.5584C109.713 86.9372 110.606 87.9615 111.686 88.6911C112.766 89.4208 114.406 89.6593 115.192 88.6397C115.977 87.6201 115.383 86.2497 114.509 85.4265C113.635 84.6034 112.485 84.1123 111.63 83.2657C109.933 81.5773 109.76 78.9114 108.689 76.7787C107.923 75.282 106.684 74.0285 106.142 72.4337C105.258 69.8285 106.413 67.0223 107.544 64.5154C108.895 61.5408 110.424 58.3651 113.298 56.8123C114.266 56.2884 115.336 55.9798 116.327 55.5027C118.796 54.3194 121.876 51.5272 123.082 49.025C124.138 46.8034 122.512 44.6566 120.717 43.2722Z" fill="#3F3D56"/>
<path opacity="0.1" d="M99.4902 89.6406C100.832 90.4965 102.346 91.0437 103.664 91.937C104.983 92.8303 106.137 94.1867 106.175 95.7769C106.212 97.2969 105.24 98.6299 104.305 99.8366L92.918 114.789L98.7236 116.328C97.7887 117.619 97.5503 119.265 97.0642 120.78C96.5781 122.296 95.6619 123.872 94.11 124.27C92.7076 124.63 91.2399 123.891 89.7908 123.975C88.7204 124.04 87.7107 124.546 86.6403 124.588C85.2613 124.639 83.9805 123.914 82.8306 123.147C80.269 121.431 77.7262 118.97 77.7449 115.884C77.8056 114.841 78.016 113.812 78.3665 112.825C80.0447 107.348 81.7835 101.74 85.2613 97.1847C87.1311 94.7526 89.4169 92.6994 91.7026 90.6602C92.2215 90.1363 92.8339 89.7154 93.507 89.4114C95.0028 88.8502 96.6342 89.5424 98.1814 89.9914C99.7286 90.4404 101.678 90.5058 102.571 89.1822" fill="black"/>
<path d="M98.9994 88.7192C100.341 89.5704 101.855 90.1223 103.174 91.0157C104.492 91.909 105.646 93.2653 105.688 94.8508C105.731 96.4364 104.754 97.7085 103.819 98.9152L92.4272 113.854L98.2328 115.392C97.2979 116.683 97.0595 118.325 96.5734 119.845C96.0873 121.365 95.1711 122.937 93.6192 123.334C92.2168 123.694 90.7491 122.955 89.3 123.039C88.2296 123.1 87.2199 123.61 86.1494 123.648C84.7705 123.699 83.4897 122.974 82.3398 122.207C79.7782 120.495 77.2353 118.03 77.2587 114.948C77.3148 113.905 77.5205 112.872 77.8757 111.889C79.5538 106.408 81.2927 100.8 84.7705 96.2493C86.6403 93.8125 88.9307 91.7593 91.2118 89.7014C91.7354 89.1822 92.343 88.7566 93.0162 88.4526C94.512 87.8914 96.1433 88.5836 97.6906 89.0372C99.2378 89.4909 101.187 89.5517 102.08 88.2281" fill="#F86D70"/>
<g opacity="0.1">
<path opacity="0.1" d="M216.108 38.3051C217.206 39.8252 218.912 40.812 220.66 41.4622C223.923 42.6735 227.471 42.884 230.851 42.0608C234.123 41.2657 237.54 39.5352 240.611 40.9009C241.335 41.2236 242.013 41.7147 242.803 41.7708C243.574 41.7568 244.327 41.5042 244.949 41.0459C246.842 39.8766 248.581 38.1742 249.413 36.1677C249.413 36.2706 249.413 36.3735 249.441 36.4811C249.586 39.6849 247.183 42.4677 244.463 44.1468C243.841 44.6051 243.093 44.8577 242.322 44.8671C241.532 44.8156 240.849 44.3198 240.125 44.0018C237.054 42.6361 233.618 44.3666 230.364 45.1617C226.985 45.9802 223.437 45.7697 220.174 44.563C218.421 43.9083 216.72 42.9261 215.621 41.406C214.523 39.886 214.13 37.7579 215.065 36.1256L215.135 36.0087C215.285 36.8365 215.617 37.6223 216.108 38.3051Z" fill="black"/>
<path opacity="0.1" d="M216.729 30.4898C216.767 31.21 216.332 31.8134 215.916 32.4261C215.86 32.2764 215.813 32.1174 215.78 31.9584C215.64 31.1212 216.042 30.3074 216.486 29.5731C216.612 29.8677 216.697 30.1764 216.729 30.4898Z" fill="black"/>
</g>
<path opacity="0.1" d="M161.351 7.09978L157.341 18.596C158.682 19.5314 160.3 19.9617 161.767 20.6773C163.235 21.3929 164.661 22.5481 164.96 24.157C165.189 25.3777 164.754 26.7809 165.465 27.8051C166.115 28.7405 167.438 28.8949 168.559 28.7405C169.681 28.5862 170.808 28.1933 171.93 28.3664C174.734 28.792 175.777 30.5132 178.371 28.3898C180.965 26.2664 181.905 28.7873 184.317 30.1437C186.495 31.3691 189.183 31.2428 191.614 30.6815C192.993 30.4243 194.297 29.8724 195.447 29.0679C195.61 28.9323 195.764 28.792 195.914 28.6423C195.554 29.4094 195.017 30.0782 194.343 30.588C193.198 31.3971 191.889 31.949 190.51 32.2063C188.08 32.7628 185.369 32.8891 183.214 31.6684C180.802 30.312 179.811 27.8379 177.268 29.9145C174.725 31.9911 173.622 30.3167 170.826 29.9145C169.705 29.7414 168.583 30.1296 167.456 30.2887C166.33 30.4477 165.011 30.2887 164.362 29.3532C163.651 28.3336 164.086 26.9305 163.857 25.7098C163.558 24.1009 162.132 22.9457 160.664 22.2301C159.197 21.5145 157.579 21.0795 156.238 20.1488L160.267 8.61982C160.734 7.35234 161.249 5.98196 162.183 5.07928C161.861 5.73407 161.58 6.40757 161.351 7.09978Z" fill="black"/>
<g opacity="0.1">
<path opacity="0.1" d="M109.526 87.0635C110.559 87.5312 111.863 87.6014 112.518 86.7268C113.252 85.7914 112.709 84.3415 111.835 83.5136C110.961 82.6858 109.811 82.1994 108.956 81.3528C107.259 79.6691 107.086 77.0032 106.016 74.8704C105.249 73.3691 104.01 72.1156 103.468 70.5208C102.585 67.9203 103.739 65.1094 104.87 62.6072C106.221 59.6326 107.75 56.4568 110.625 54.904C111.592 54.3802 112.663 54.0715 113.654 53.5945C116.122 52.4112 119.202 49.6143 120.408 47.1121C121.423 45.0027 119.992 42.9542 118.291 41.5651C119.118 42.1029 119.927 42.6688 120.712 43.2722C122.512 44.6753 124.134 46.8034 123.049 49.0156C121.843 51.5179 118.763 54.3101 116.295 55.4934C115.304 55.9611 114.233 56.2791 113.266 56.8029C110.391 58.3557 108.862 61.5314 107.512 64.5061C106.376 67.013 105.221 69.8192 106.109 72.4243C106.651 74.0192 107.89 75.2727 108.657 76.7693C109.741 78.9021 109.9 81.568 111.597 83.2564C112.452 84.1029 113.602 84.5894 114.476 85.4172C115.351 86.245 115.879 87.6762 115.159 88.6303C114.439 89.5845 112.728 89.388 111.653 88.6818C110.929 88.1907 110.269 87.5453 109.526 87.0635Z" fill="black"/>
<path opacity="0.1" d="M81.1759 82.915L87.4162 78.4063C87.9024 78.0041 88.4586 77.7047 89.0616 77.5223C90.3471 77.2277 91.6045 78.0321 92.6796 78.7945L105.768 88.0551C106.292 86.984 106.315 85.7352 105.829 84.6455C107.03 85.0197 107.904 86.0205 108.947 86.7221C108.797 86.6519 108.638 86.5958 108.479 86.5491C108.965 87.6388 108.942 88.8829 108.418 89.954L95.33 80.6934C94.2549 79.931 92.9928 79.1266 91.712 79.4259C91.109 79.6083 90.5528 79.9076 90.0666 80.3052L83.8263 84.8185C82.7886 85.5669 81.433 86.3433 80.3111 85.7212C79.6848 85.3377 79.3155 84.6502 79.3342 83.9159C79.9979 83.682 80.6196 83.3453 81.1759 82.915Z" fill="black"/>
</g>
<path d="M237.082 113.461C237.082 113.461 210.297 115.608 204.968 111.81L229.472 108.031L237.082 113.461Z" fill="#E3E8F4"/>
<path opacity="0.1" d="M237.082 113.461C237.082 113.461 210.297 115.608 204.968 111.81L229.472 108.031L237.082 113.461Z" fill="black"/>
<path d="M237.082 113.461L229.579 108.709C229.579 108.709 207.198 115.145 201.065 112.488L207.306 103.728L229.481 108.054L237.082 113.461Z" fill="#E3E8F4"/>
<path d="M203.8 50.4515C202.972 51.4991 202.309 52.6637 201.832 53.9078C201.617 54.5673 201.509 55.2548 201.327 55.9236C200.813 57.5887 200.023 59.1555 198.99 60.5586C196.685 63.9121 193.806 67.1486 193.226 71.1755C192.946 73.1633 193.254 75.1838 193.647 77.1528C193.857 78.453 194.231 79.7205 194.75 80.9272C195.344 82.2087 196.227 83.3359 196.905 84.5753C197.522 85.7914 198.046 87.0542 198.466 88.3544C199.266 87.5546 199.738 86.4836 200.378 85.5481C201.018 84.6127 201.972 83.7709 203.099 83.7568C204.398 83.7568 205.469 84.8326 206.754 85.0009C206.955 85.043 207.161 85.0196 207.352 84.9448C207.82 84.725 207.857 84.0936 207.82 83.5885C207.45 80.0573 205.431 76.5729 206.385 73.1492C207.263 69.9829 210.405 68.0045 212.055 65.1655C213.251 63.1029 213.607 60.6709 213.925 58.3043C214.322 55.4746 214.724 52.6216 214.546 49.7733C214.457 48.3374 213.317 39.2639 211.232 40.2134C210.508 40.5408 209.876 41.9299 209.423 42.5519L207.553 45.2038L203.8 50.4515Z" fill="#3F3D56"/>
<path d="M147.852 108.985L132.814 121.234L113.467 117.773L126.494 107.54L147.852 108.985Z" fill="#E3E8F4"/>
<path opacity="0.1" d="M148.394 108.223L133.356 120.472L114.009 117.011L127.037 106.777L148.394 108.223Z" fill="black"/>
<path d="M148.286 107.572L133.249 119.817L113.897 116.361L126.929 106.123L148.286 107.572Z" fill="#E3E8F4"/>
<path opacity="0.1" d="M148.721 106.155L133.679 118.405L114.332 114.943L127.364 104.71L148.721 106.155Z" fill="black"/>
<path d="M148.609 105.505L133.571 117.754L114.224 114.293L127.252 104.06L148.609 105.505Z" fill="#E3E8F4"/>
<path d="M346.416 272.874C347.617 272.289 349.067 272.79 349.651 273.992C349.782 274.263 349.861 274.558 349.889 274.862L350.726 285.717L345.762 286.615L343.144 278.767L346.416 272.874Z" fill="#3F3D56"/>
<path d="M172.738 200.113L96.765 238.689C94.1661 240.018 93.133 243.203 94.4559 245.803C94.9701 246.809 95.7928 247.627 96.8024 248.132L260.43 330.294C266.343 333.255 273.341 333.082 279.095 329.826L348.015 290.941C350.553 289.491 351.432 286.264 349.987 283.725C349.459 282.799 348.66 282.05 347.702 281.587L177.408 200.061C175.926 199.355 174.201 199.374 172.738 200.113Z" fill="#3F3D56"/>
<path d="M96.2555 231.978L93.8763 233.746L93.6893 242.211C93.6565 243.558 94.3998 244.802 95.5964 245.419L262.02 330.869C263.235 331.496 264.731 331.019 265.357 329.803C265.539 329.452 265.633 329.064 265.633 328.667V316.371L96.2555 231.978Z" fill="#3F3D56"/>
<path d="M172.738 190.3L96.7651 228.872C94.1614 230.196 93.1237 233.381 94.4465 235.986C94.9561 236.991 95.7788 237.81 96.7884 238.315L260.43 320.477C266.343 323.438 273.336 323.26 279.095 320.009L348.015 281.12C350.553 279.67 351.432 276.442 349.987 273.903C349.459 272.977 348.66 272.228 347.702 271.765L177.408 190.244C175.926 189.538 174.201 189.561 172.738 190.3Z" fill="#E3E8F4"/>
<path d="M188.463 197.302L104.754 239.83L248.627 311.81L334.955 267.968L188.463 197.302Z" fill="#3F3D56"/>
<path d="M301.275 298.724C306.152 298.724 310.105 296.381 310.105 293.49C310.105 290.6 306.152 288.257 301.275 288.257C296.399 288.257 292.445 290.6 292.445 293.49C292.445 296.381 296.399 298.724 301.275 298.724Z" fill="#3F3D56"/>
<path d="M140.232 211.698C140.684 211.698 141.05 211.331 141.05 210.879C141.05 210.427 140.684 210.061 140.232 210.061C139.781 210.061 139.414 210.427 139.414 210.879C139.414 211.331 139.781 211.698 140.232 211.698Z" fill="#3F3D56"/>
<path d="M137.783 218.241C138.325 218.241 138.765 217.801 138.765 217.259C138.765 216.716 138.325 216.277 137.783 216.277C137.241 216.277 136.801 216.716 136.801 217.259C136.801 217.801 137.241 218.241 137.783 218.241Z" fill="#3F3D56"/>
<path d="M141.378 215.622L151.189 211.043" stroke="#3F3D56" stroke-miterlimit="10"/>
<path d="M200.598 252.912L228.294 236.912C232.318 234.587 237.465 235.967 239.788 239.994C242.111 244.021 240.732 249.17 236.708 251.495L209.012 267.495C204.987 269.82 199.841 268.44 197.517 264.413C195.194 260.386 196.573 255.237 200.598 252.912Z" fill="#6C63FF"/>
<path d="M225.372 265.54L253.068 249.54C257.093 247.215 262.239 248.595 264.562 252.622C266.886 256.649 265.507 261.799 261.482 264.123L233.786 280.123C229.761 282.448 224.615 281.068 222.292 277.041C219.969 273.014 221.348 267.865 225.372 265.54Z" fill="#6C63FF"/>
<path d="M178.161 238.413L205.857 222.413C209.881 220.089 215.028 221.468 217.351 225.495C219.674 229.522 218.295 234.672 214.27 236.996L186.575 252.996C182.55 255.321 177.403 253.941 175.08 249.914C172.757 245.887 174.136 240.742 178.161 238.413Z" fill="#6C63FF"/>
</g>
<defs>
<clipPath id="clip0">
<rect width="432" height="383" fill="white"/>
</clipPath>
</defs>
</svg>
