<svg width="426" height="244" viewBox="0 0 426 244" fill="none" xmlns="http://www.w3.org/2000/svg">
<path d="M405.484 0H20.5156C9.19581 0.0120792 0.012068 9.20436 0 20.5347V223.465C0.012068 234.796 9.19581 243.988 20.5156 244H405.484C416.804 243.988 425.988 234.796 426 223.465V20.5347C425.988 9.20436 416.804 0.0120792 405.484 0ZM423.586 223.465C423.574 233.467 415.477 241.572 405.484 241.584H20.5156C10.5233 241.572 2.42567 233.467 2.4136 223.465V20.5347C2.42567 10.5331 10.5233 2.42792 20.5156 2.41584H405.484C415.477 2.42792 423.574 10.5331 423.586 20.5347V223.465Z" fill="#3F3D56"/>
</svg>
